<svg width="1068" height="300" viewBox="0 0 1068 300" fill="none" xmlns="http://www.w3.org/2000/svg">
<path d="M104.93 61.6437C84.4003 80.1369 98.9992 112.192 127.741 112.192C147.358 112.192 159.676 100.685 159.676 81.7807C159.676 70.2738 156.939 64.5204 149.639 59.9999C135.497 50.9588 115.879 51.7807 104.93 61.6437ZM138.69 71.0958C155.114 81.7807 136.865 105.616 119.985 96.1643C109.036 89.9999 107.667 80.5478 116.336 72.3286C125.46 64.5204 128.197 64.1095 138.69 71.0958Z" fill="black"/>
<path d="M45.6218 127.397C45.6218 135.205 48.8153 135.616 127.741 135.616C206.667 135.616 209.86 135.205 209.86 127.397C209.86 119.589 206.667 119.178 127.741 119.178C48.8153 119.178 45.6218 119.589 45.6218 127.397Z" fill="black"/>
<path d="M103.561 155.342C92.6122 166.027 92.156 263.014 102.649 263.014C107.667 263.014 109.492 258.082 109.492 242.466V221.918H127.741H145.99V242.466C145.99 258.082 147.815 263.014 152.833 263.014C158.308 263.014 159.676 256.438 159.676 228.082C159.676 196.027 158.764 193.151 150.552 193.151C145.533 193.151 141.428 194.794 141.428 196.849C141.428 203.014 126.829 205.89 120.442 200.959C116.792 198.493 114.054 189.041 114.054 180.411C114.054 168.082 115.879 164.384 124.091 161.918C130.478 160.274 135.497 161.507 139.146 166.027C145.99 174.247 159.676 174.658 159.676 166.849C159.676 148.767 118.16 140.548 103.561 155.342Z" fill="black"/>
<path d="M253.755 142V80.9091H261.153V108.114H293.727V80.9091H301.125V142H293.727V114.676H261.153V142H253.755ZM365.094 100H357.696C357.259 97.8722 356.493 96.0028 355.4 94.392C354.326 92.7812 353.013 91.429 351.462 90.3352C349.931 89.2216 348.23 88.3864 346.361 87.8295C344.492 87.2727 342.543 86.9943 340.515 86.9943C336.816 86.9943 333.465 87.929 330.462 89.7983C327.479 91.6676 325.103 94.4219 323.333 98.0611C321.583 101.7 320.708 106.165 320.708 111.455C320.708 116.744 321.583 121.209 323.333 124.848C325.103 128.487 327.479 131.241 330.462 133.111C333.465 134.98 336.816 135.915 340.515 135.915C342.543 135.915 344.492 135.636 346.361 135.08C348.23 134.523 349.931 133.697 351.462 132.604C353.013 131.49 354.326 130.128 355.4 128.517C356.493 126.886 357.259 125.017 357.696 122.909H365.094C364.537 126.031 363.523 128.825 362.051 131.291C360.58 133.757 358.75 135.855 356.563 137.585C354.375 139.295 351.919 140.598 349.195 141.493C346.49 142.388 343.597 142.835 340.515 142.835C335.304 142.835 330.671 141.562 326.614 139.017C322.557 136.472 319.365 132.852 317.039 128.159C314.712 123.466 313.549 117.898 313.549 111.455C313.549 105.011 314.712 99.4432 317.039 94.75C319.365 90.0568 322.557 86.4375 326.614 83.892C330.671 81.3466 335.304 80.0739 340.515 80.0739C343.597 80.0739 346.49 80.5213 349.195 81.4162C351.919 82.3111 354.375 83.6236 356.563 85.3537C358.75 87.0639 360.58 89.152 362.051 91.6179C363.523 94.0639 364.537 96.858 365.094 100ZM384.446 80.9091V142H377.048V80.9091H384.446ZM433.523 149.159C427.438 149.159 422.059 148.324 417.385 146.653C412.712 145.003 408.784 142.567 405.603 139.345C402.421 136.124 400.015 132.176 398.384 127.503C396.753 122.83 395.938 117.48 395.938 111.455C395.938 105.628 396.763 100.418 398.414 95.8239C400.084 91.2301 402.5 87.3324 405.662 84.1307C408.844 80.9091 412.702 78.4531 417.236 76.7628C421.79 75.0724 426.941 74.2273 432.688 74.2273C438.276 74.2273 443.168 75.142 447.364 76.9716C451.58 78.7812 455.1 81.2372 457.924 84.3395C460.767 87.4219 462.895 90.892 464.307 94.75C465.739 98.608 466.455 102.585 466.455 106.682C466.455 109.565 466.316 112.489 466.037 115.452C465.759 118.415 465.172 121.139 464.277 123.625C463.382 126.091 462 128.08 460.131 129.591C458.282 131.102 455.776 131.858 452.614 131.858C451.222 131.858 449.691 131.639 448.02 131.202C446.35 130.764 444.868 130.038 443.576 129.024C442.283 128.01 441.517 126.648 441.279 124.938H440.921C440.444 126.091 439.708 127.185 438.713 128.219C437.739 129.253 436.456 130.078 434.865 130.695C433.294 131.311 431.375 131.58 429.108 131.5C426.523 131.401 424.246 130.824 422.277 129.77C420.309 128.696 418.658 127.244 417.326 125.415C416.013 123.565 415.019 121.428 414.343 119.001C413.686 116.555 413.358 113.92 413.358 111.097C413.358 108.412 413.756 105.956 414.551 103.729C415.347 101.501 416.451 99.5526 417.863 97.8821C419.294 96.2116 420.965 94.8793 422.874 93.8849C424.803 92.8707 426.881 92.2443 429.108 92.0057C431.097 91.8068 432.907 91.8963 434.537 92.2741C436.168 92.6321 437.51 93.179 438.564 93.9148C439.618 94.6307 440.284 95.4261 440.563 96.3011H440.921V92.9602H447.245V119.926C447.245 121.597 447.712 123.068 448.647 124.341C449.581 125.614 450.944 126.25 452.733 126.25C454.762 126.25 456.313 125.554 457.387 124.162C458.48 122.77 459.226 120.622 459.624 117.719C460.042 114.815 460.25 111.097 460.25 106.562C460.25 103.898 459.882 101.273 459.147 98.6875C458.431 96.0824 457.337 93.6463 455.865 91.3793C454.414 89.1122 452.574 87.1136 450.347 85.3835C448.12 83.6534 445.505 82.3011 442.502 81.3267C439.519 80.3324 436.128 79.8352 432.33 79.8352C427.657 79.8352 423.471 80.5611 419.772 82.0128C416.093 83.4446 412.961 85.5426 410.375 88.3068C407.81 91.0511 405.851 94.392 404.499 98.3295C403.167 102.247 402.5 106.702 402.5 111.693C402.5 116.764 403.167 121.268 404.499 125.206C405.851 129.143 407.84 132.464 410.465 135.169C413.11 137.874 416.381 139.932 420.279 141.344C424.176 142.736 428.671 143.432 433.762 143.432C435.949 143.432 438.107 143.223 440.235 142.805C442.363 142.388 444.242 141.93 445.873 141.433C447.503 140.936 448.676 140.568 449.392 140.33L451.063 145.818C449.83 146.335 448.219 146.852 446.23 147.369C444.262 147.886 442.154 148.314 439.907 148.652C437.679 148.99 435.551 149.159 433.523 149.159ZM430.063 125.415C432.728 125.415 434.885 124.878 436.536 123.804C438.186 122.73 439.39 121.109 440.145 118.942C440.901 116.774 441.279 114.04 441.279 110.739C441.279 107.398 440.861 104.793 440.026 102.923C439.191 101.054 437.958 99.7415 436.327 98.9858C434.696 98.2301 432.688 97.8523 430.301 97.8523C428.034 97.8523 426.096 98.4489 424.485 99.642C422.894 100.815 421.671 102.386 420.816 104.355C419.98 106.304 419.563 108.432 419.563 110.739C419.563 113.284 419.901 115.68 420.577 117.928C421.253 120.155 422.357 121.964 423.888 123.357C425.419 124.729 427.478 125.415 430.063 125.415ZM477.947 142V80.9091H485.344V111.216H486.06L513.504 80.9091H523.168L497.515 108.472L523.168 142H514.219L492.981 113.602L485.344 122.193V142H477.947ZM535.249 142H527.494L549.925 80.9091H557.562L579.994 142H572.238L553.982 90.5739H553.505L535.249 142ZM538.113 118.136H569.374V124.699H538.113V118.136ZM596.907 80.9091V142H589.509V80.9091H596.907ZM645.149 96.1818C644.791 93.1591 643.339 90.8125 640.794 89.142C638.248 87.4716 635.126 86.6364 631.427 86.6364C628.723 86.6364 626.356 87.0739 624.328 87.9489C622.319 88.8239 620.748 90.027 619.615 91.5582C618.501 93.0895 617.944 94.8295 617.944 96.7784C617.944 98.4091 618.332 99.8111 619.108 100.984C619.903 102.138 620.917 103.102 622.15 103.878C623.383 104.634 624.676 105.26 626.028 105.757C627.38 106.234 628.623 106.622 629.757 106.92L635.961 108.591C637.552 109.009 639.322 109.585 641.271 110.321C643.24 111.057 645.119 112.061 646.909 113.334C648.718 114.587 650.21 116.197 651.383 118.166C652.556 120.135 653.143 122.551 653.143 125.415C653.143 128.716 652.278 131.699 650.548 134.364C648.838 137.028 646.332 139.146 643.031 140.717C639.75 142.288 635.762 143.074 631.069 143.074C626.694 143.074 622.906 142.368 619.704 140.956C616.522 139.544 614.017 137.575 612.187 135.05C610.377 132.524 609.353 129.591 609.115 126.25H616.751C616.95 128.557 617.726 130.466 619.078 131.977C620.45 133.469 622.18 134.582 624.268 135.318C626.376 136.034 628.643 136.392 631.069 136.392C633.893 136.392 636.429 135.935 638.676 135.02C640.923 134.085 642.703 132.793 644.015 131.142C645.328 129.472 645.984 127.523 645.984 125.295C645.984 123.267 645.417 121.616 644.284 120.344C643.15 119.071 641.659 118.037 639.809 117.241C637.96 116.446 635.961 115.75 633.814 115.153L626.297 113.006C621.524 111.634 617.745 109.675 614.961 107.129C612.177 104.584 610.785 101.253 610.785 97.1364C610.785 93.7159 611.71 90.733 613.559 88.1875C615.429 85.6222 617.934 83.6335 621.076 82.2216C624.238 80.7898 627.768 80.0739 631.666 80.0739C635.603 80.0739 639.103 80.7798 642.166 82.1918C645.228 83.5838 647.654 85.4929 649.444 87.919C651.254 90.3452 652.208 93.0994 652.308 96.1818H645.149ZM661.965 87.4716V80.9091H707.783V87.4716H688.573V142H681.175V87.4716H661.965Z" fill="black"/>
<path d="M250.585 228V193.091H254.812V224.25H271.039V228H250.585ZM288.017 228.545C285.494 228.545 283.318 227.989 281.488 226.875C279.67 225.75 278.267 224.182 277.278 222.17C276.301 220.148 275.812 217.795 275.812 215.114C275.812 212.432 276.301 210.068 277.278 208.023C278.267 205.966 279.642 204.364 281.403 203.216C283.176 202.057 285.244 201.477 287.608 201.477C288.971 201.477 290.318 201.705 291.647 202.159C292.977 202.614 294.187 203.352 295.278 204.375C296.369 205.386 297.238 206.727 297.886 208.398C298.534 210.068 298.858 212.125 298.858 214.568V216.273H278.676V212.795H294.767C294.767 211.318 294.471 210 293.88 208.841C293.301 207.682 292.471 206.767 291.392 206.097C290.324 205.426 289.062 205.091 287.608 205.091C286.005 205.091 284.619 205.489 283.449 206.284C282.289 207.068 281.397 208.091 280.772 209.352C280.147 210.614 279.835 211.966 279.835 213.409V215.727C279.835 217.705 280.176 219.381 280.858 220.756C281.551 222.119 282.511 223.159 283.738 223.875C284.966 224.58 286.392 224.932 288.017 224.932C289.074 224.932 290.028 224.784 290.88 224.489C291.744 224.182 292.488 223.727 293.113 223.125C293.738 222.511 294.221 221.75 294.562 220.841L298.449 221.932C298.039 223.25 297.352 224.409 296.386 225.409C295.42 226.398 294.227 227.17 292.806 227.727C291.386 228.273 289.789 228.545 288.017 228.545ZM312.681 228.614C311.022 228.614 309.517 228.301 308.164 227.676C306.812 227.04 305.738 226.125 304.943 224.932C304.147 223.727 303.75 222.273 303.75 220.568C303.75 219.068 304.045 217.852 304.636 216.92C305.227 215.977 306.017 215.239 307.005 214.705C307.994 214.17 309.085 213.773 310.278 213.511C311.483 213.239 312.693 213.023 313.909 212.864C315.5 212.659 316.789 212.506 317.778 212.403C318.778 212.29 319.505 212.102 319.96 211.841C320.426 211.58 320.659 211.125 320.659 210.477V210.341C320.659 208.659 320.199 207.352 319.278 206.42C318.369 205.489 316.988 205.023 315.136 205.023C313.216 205.023 311.71 205.443 310.619 206.284C309.528 207.125 308.761 208.023 308.318 208.977L304.5 207.614C305.181 206.023 306.091 204.784 307.227 203.898C308.375 203 309.625 202.375 310.977 202.023C312.341 201.659 313.681 201.477 315 201.477C315.841 201.477 316.806 201.58 317.897 201.784C319 201.977 320.062 202.381 321.085 202.994C322.119 203.608 322.977 204.534 323.659 205.773C324.341 207.011 324.681 208.67 324.681 210.75V228H320.659V224.455H320.454C320.181 225.023 319.727 225.631 319.091 226.278C318.454 226.926 317.608 227.477 316.551 227.932C315.494 228.386 314.204 228.614 312.681 228.614ZM313.295 225C314.886 225 316.227 224.688 317.318 224.062C318.42 223.438 319.25 222.631 319.806 221.642C320.375 220.653 320.659 219.614 320.659 218.523V214.841C320.488 215.045 320.113 215.233 319.534 215.403C318.966 215.562 318.306 215.705 317.556 215.83C316.818 215.943 316.096 216.045 315.392 216.136C314.699 216.216 314.136 216.284 313.704 216.341C312.659 216.477 311.681 216.699 310.772 217.006C309.875 217.301 309.147 217.75 308.591 218.352C308.045 218.943 307.772 219.75 307.772 220.773C307.772 222.17 308.289 223.227 309.324 223.943C310.369 224.648 311.693 225 313.295 225ZM341.91 228.545C339.728 228.545 337.802 227.994 336.132 226.892C334.461 225.778 333.154 224.21 332.211 222.188C331.268 220.153 330.797 217.75 330.797 214.977C330.797 212.227 331.268 209.841 332.211 207.818C333.154 205.795 334.467 204.233 336.149 203.131C337.831 202.028 339.774 201.477 341.978 201.477C343.683 201.477 345.029 201.761 346.018 202.33C347.018 202.886 347.779 203.523 348.302 204.239C348.836 204.943 349.251 205.523 349.547 205.977H349.887V193.091H353.91V228H350.024V223.977H349.547C349.251 224.455 348.831 225.057 348.285 225.784C347.74 226.5 346.961 227.142 345.95 227.71C344.939 228.267 343.592 228.545 341.91 228.545ZM342.456 224.932C344.069 224.932 345.433 224.511 346.547 223.67C347.66 222.818 348.507 221.642 349.086 220.142C349.666 218.631 349.956 216.886 349.956 214.909C349.956 212.955 349.672 211.244 349.103 209.778C348.535 208.301 347.694 207.153 346.581 206.335C345.467 205.506 344.092 205.091 342.456 205.091C340.751 205.091 339.331 205.528 338.194 206.403C337.069 207.267 336.223 208.443 335.654 209.932C335.098 211.409 334.819 213.068 334.819 214.909C334.819 216.773 335.103 218.466 335.672 219.989C336.251 221.5 337.103 222.705 338.228 223.602C339.365 224.489 340.774 224.932 342.456 224.932ZM361.836 228V201.818H365.859V228H361.836ZM363.882 197.455C363.098 197.455 362.422 197.188 361.853 196.653C361.297 196.119 361.018 195.477 361.018 194.727C361.018 193.977 361.297 193.335 361.853 192.801C362.422 192.267 363.098 192 363.882 192C364.666 192 365.336 192.267 365.893 192.801C366.461 193.335 366.745 193.977 366.745 194.727C366.745 195.477 366.461 196.119 365.893 196.653C365.336 197.188 364.666 197.455 363.882 197.455ZM377.25 212.25V228H373.227V201.818H377.113V205.909H377.454C378.068 204.58 379 203.511 380.25 202.705C381.5 201.886 383.113 201.477 385.091 201.477C386.863 201.477 388.414 201.841 389.744 202.568C391.074 203.284 392.108 204.375 392.846 205.841C393.585 207.295 393.954 209.136 393.954 211.364V228H389.931V211.636C389.931 209.58 389.397 207.977 388.329 206.83C387.261 205.67 385.795 205.091 383.931 205.091C382.647 205.091 381.5 205.369 380.488 205.926C379.488 206.483 378.699 207.295 378.119 208.364C377.539 209.432 377.25 210.727 377.25 212.25ZM411.873 238.364C409.93 238.364 408.26 238.114 406.862 237.614C405.464 237.125 404.299 236.477 403.368 235.67C402.447 234.875 401.714 234.023 401.169 233.114L404.373 230.864C404.737 231.341 405.197 231.886 405.754 232.5C406.311 233.125 407.072 233.665 408.038 234.119C409.015 234.585 410.294 234.818 411.873 234.818C413.987 234.818 415.731 234.307 417.106 233.284C418.481 232.261 419.169 230.659 419.169 228.477V223.159H418.828C418.532 223.636 418.112 224.227 417.566 224.932C417.032 225.625 416.26 226.244 415.248 226.79C414.248 227.324 412.896 227.591 411.191 227.591C409.078 227.591 407.18 227.091 405.498 226.091C403.828 225.091 402.504 223.636 401.527 221.727C400.561 219.818 400.078 217.5 400.078 214.773C400.078 212.091 400.549 209.756 401.493 207.767C402.436 205.767 403.748 204.222 405.43 203.131C407.112 202.028 409.055 201.477 411.26 201.477C412.964 201.477 414.316 201.761 415.316 202.33C416.328 202.886 417.101 203.523 417.635 204.239C418.18 204.943 418.601 205.523 418.896 205.977H419.305V201.818H423.191V228.75C423.191 231 422.68 232.83 421.657 234.239C420.646 235.659 419.282 236.699 417.566 237.358C415.862 238.028 413.964 238.364 411.873 238.364ZM411.737 223.977C413.351 223.977 414.714 223.608 415.828 222.869C416.941 222.131 417.788 221.068 418.368 219.682C418.947 218.295 419.237 216.636 419.237 214.705C419.237 212.818 418.953 211.153 418.385 209.71C417.816 208.267 416.976 207.136 415.862 206.318C414.748 205.5 413.373 205.091 411.737 205.091C410.032 205.091 408.612 205.523 407.476 206.386C406.351 207.25 405.504 208.409 404.936 209.864C404.379 211.318 404.101 212.932 404.101 214.705C404.101 216.523 404.385 218.131 404.953 219.528C405.532 220.915 406.385 222.006 407.51 222.801C408.646 223.585 410.055 223.977 411.737 223.977ZM455.441 201.818V205.227H441.873V201.818H455.441ZM445.828 195.545H449.851V220.5C449.851 221.636 450.015 222.489 450.345 223.057C450.686 223.614 451.118 223.989 451.64 224.182C452.174 224.364 452.737 224.455 453.328 224.455C453.771 224.455 454.135 224.432 454.419 224.386C454.703 224.33 454.93 224.284 455.101 224.25L455.919 227.864C455.646 227.966 455.265 228.068 454.777 228.17C454.288 228.284 453.669 228.341 452.919 228.341C451.782 228.341 450.669 228.097 449.578 227.608C448.498 227.119 447.601 226.375 446.885 225.375C446.18 224.375 445.828 223.114 445.828 221.591V195.545ZM466.078 212.25V228H462.055V193.091H466.078V205.909H466.419C467.032 204.557 467.953 203.483 469.18 202.688C470.419 201.881 472.066 201.477 474.123 201.477C475.907 201.477 477.47 201.835 478.811 202.551C480.152 203.256 481.191 204.341 481.93 205.807C482.68 207.261 483.055 209.114 483.055 211.364V228H479.032V211.636C479.032 209.557 478.493 207.949 477.413 206.812C476.345 205.665 474.862 205.091 472.964 205.091C471.646 205.091 470.464 205.369 469.419 205.926C468.385 206.483 467.566 207.295 466.964 208.364C466.373 209.432 466.078 210.727 466.078 212.25ZM501.392 228.545C498.869 228.545 496.693 227.989 494.863 226.875C493.045 225.75 491.642 224.182 490.653 222.17C489.676 220.148 489.187 217.795 489.187 215.114C489.187 212.432 489.676 210.068 490.653 208.023C491.642 205.966 493.017 204.364 494.778 203.216C496.551 202.057 498.619 201.477 500.983 201.477C502.346 201.477 503.693 201.705 505.022 202.159C506.352 202.614 507.562 203.352 508.653 204.375C509.744 205.386 510.613 206.727 511.261 208.398C511.909 210.068 512.233 212.125 512.233 214.568V216.273H492.051V212.795H508.142C508.142 211.318 507.846 210 507.255 208.841C506.676 207.682 505.846 206.767 504.767 206.097C503.699 205.426 502.437 205.091 500.983 205.091C499.38 205.091 497.994 205.489 496.824 206.284C495.664 207.068 494.772 208.091 494.147 209.352C493.522 210.614 493.21 211.966 493.21 213.409V215.727C493.21 217.705 493.551 219.381 494.233 220.756C494.926 222.119 495.886 223.159 497.113 223.875C498.341 224.58 499.767 224.932 501.392 224.932C502.449 224.932 503.403 224.784 504.255 224.489C505.119 224.182 505.863 223.727 506.488 223.125C507.113 222.511 507.596 221.75 507.937 220.841L511.824 221.932C511.414 223.25 510.727 224.409 509.761 225.409C508.795 226.398 507.602 227.17 506.181 227.727C504.761 228.273 503.164 228.545 501.392 228.545ZM537.784 228L529.806 201.818H534.034L539.693 221.864H539.966L545.556 201.818H549.852L555.375 221.795H555.647L561.306 201.818H565.534L557.556 228H553.602L547.875 207.886H547.466L541.738 228H537.784ZM580.598 228.545C578.234 228.545 576.16 227.983 574.376 226.858C572.603 225.733 571.217 224.159 570.217 222.136C569.228 220.114 568.734 217.75 568.734 215.045C568.734 212.318 569.228 209.937 570.217 207.903C571.217 205.869 572.603 204.29 574.376 203.165C576.16 202.04 578.234 201.477 580.598 201.477C582.961 201.477 585.029 202.04 586.802 203.165C588.586 204.29 589.973 205.869 590.961 207.903C591.961 209.937 592.461 212.318 592.461 215.045C592.461 217.75 591.961 220.114 590.961 222.136C589.973 224.159 588.586 225.733 586.802 226.858C585.029 227.983 582.961 228.545 580.598 228.545ZM580.598 224.932C582.393 224.932 583.87 224.472 585.029 223.551C586.189 222.631 587.047 221.42 587.603 219.92C588.16 218.42 588.439 216.795 588.439 215.045C588.439 213.295 588.16 211.665 587.603 210.153C587.047 208.642 586.189 207.42 585.029 206.489C583.87 205.557 582.393 205.091 580.598 205.091C578.802 205.091 577.325 205.557 576.166 206.489C575.007 207.42 574.149 208.642 573.592 210.153C573.035 211.665 572.757 213.295 572.757 215.045C572.757 216.795 573.035 218.42 573.592 219.92C574.149 221.42 575.007 222.631 576.166 223.551C577.325 224.472 578.802 224.932 580.598 224.932ZM598.602 228V201.818H602.488V205.773H602.761C603.238 204.477 604.102 203.426 605.352 202.619C606.602 201.812 608.011 201.409 609.579 201.409C609.875 201.409 610.244 201.415 610.687 201.426C611.13 201.437 611.466 201.455 611.693 201.477V205.568C611.556 205.534 611.244 205.483 610.755 205.415C610.278 205.335 609.772 205.295 609.238 205.295C607.966 205.295 606.829 205.562 605.829 206.097C604.841 206.619 604.056 207.347 603.477 208.278C602.909 209.199 602.625 210.25 602.625 211.432V228H598.602ZM620.484 193.091V228H616.461V193.091H620.484ZM637.738 228.545C635.556 228.545 633.63 227.994 631.96 226.892C630.289 225.778 628.983 224.21 628.039 222.188C627.096 220.153 626.625 217.75 626.625 214.977C626.625 212.227 627.096 209.841 628.039 207.818C628.983 205.795 630.295 204.233 631.977 203.131C633.659 202.028 635.602 201.477 637.806 201.477C639.511 201.477 640.858 201.761 641.846 202.33C642.846 202.886 643.608 203.523 644.13 204.239C644.664 204.943 645.079 205.523 645.375 205.977H645.716V193.091H649.738V228H645.852V223.977H645.375C645.079 224.455 644.659 225.057 644.113 225.784C643.568 226.5 642.789 227.142 641.778 227.71C640.767 228.267 639.42 228.545 637.738 228.545ZM638.284 224.932C639.897 224.932 641.261 224.511 642.375 223.67C643.488 222.818 644.335 221.642 644.914 220.142C645.494 218.631 645.784 216.886 645.784 214.909C645.784 212.955 645.5 211.244 644.931 209.778C644.363 208.301 643.522 207.153 642.409 206.335C641.295 205.506 639.92 205.091 638.284 205.091C636.579 205.091 635.159 205.528 634.022 206.403C632.897 207.267 632.051 208.443 631.483 209.932C630.926 211.409 630.647 213.068 630.647 214.909C630.647 216.773 630.931 218.466 631.5 219.989C632.079 221.5 632.931 222.705 634.056 223.602C635.193 224.489 636.602 224.932 638.284 224.932ZM671.164 228V201.818H675.187V228H671.164ZM673.21 197.455C672.426 197.455 671.75 197.188 671.181 196.653C670.625 196.119 670.346 195.477 670.346 194.727C670.346 193.977 670.625 193.335 671.181 192.801C671.75 192.267 672.426 192 673.21 192C673.994 192 674.664 192.267 675.221 192.801C675.789 193.335 676.074 193.977 676.074 194.727C676.074 195.477 675.789 196.119 675.221 196.653C674.664 197.188 673.994 197.455 673.21 197.455ZM686.578 212.25V228H682.555V201.818H686.441V205.909H686.782C687.396 204.58 688.328 203.511 689.578 202.705C690.828 201.886 692.441 201.477 694.419 201.477C696.191 201.477 697.743 201.841 699.072 202.568C700.402 203.284 701.436 204.375 702.174 205.841C702.913 207.295 703.282 209.136 703.282 211.364V228H699.26V211.636C699.26 209.58 698.726 207.977 697.657 206.83C696.589 205.67 695.123 205.091 693.26 205.091C691.976 205.091 690.828 205.369 689.816 205.926C688.816 206.483 688.027 207.295 687.447 208.364C686.868 209.432 686.578 210.727 686.578 212.25ZM724.679 228V193.091H728.906V208.636H747.52V193.091H751.747V228H747.52V212.386H728.906V228H724.679ZM788.301 204H784.074C783.824 202.784 783.386 201.716 782.761 200.795C782.147 199.875 781.397 199.102 780.511 198.477C779.636 197.841 778.664 197.364 777.596 197.045C776.528 196.727 775.414 196.568 774.255 196.568C772.142 196.568 770.227 197.102 768.511 198.17C766.806 199.239 765.449 200.812 764.437 202.892C763.437 204.972 762.937 207.523 762.937 210.545C762.937 213.568 763.437 216.119 764.437 218.199C765.449 220.278 766.806 221.852 768.511 222.92C770.227 223.989 772.142 224.523 774.255 224.523C775.414 224.523 776.528 224.364 777.596 224.045C778.664 223.727 779.636 223.256 780.511 222.631C781.397 221.994 782.147 221.216 782.761 220.295C783.386 219.364 783.824 218.295 784.074 217.091H788.301C787.983 218.875 787.403 220.472 786.562 221.881C785.721 223.29 784.676 224.489 783.426 225.477C782.176 226.455 780.772 227.199 779.216 227.71C777.67 228.222 776.017 228.477 774.255 228.477C771.278 228.477 768.63 227.75 766.312 226.295C763.994 224.841 762.17 222.773 760.841 220.091C759.511 217.409 758.846 214.227 758.846 210.545C758.846 206.864 759.511 203.682 760.841 201C762.17 198.318 763.994 196.25 766.312 194.795C768.63 193.341 771.278 192.614 774.255 192.614C776.017 192.614 777.67 192.869 779.216 193.381C780.772 193.892 782.176 194.642 783.426 195.631C784.676 196.608 785.721 197.801 786.562 199.21C787.403 200.608 787.983 202.205 788.301 204ZM799.359 193.091V228H795.132V193.091H799.359ZM820.789 228V201.818H824.676V205.773H824.949C825.426 204.477 826.289 203.426 827.539 202.619C828.789 201.812 830.199 201.409 831.767 201.409C832.062 201.409 832.431 201.415 832.875 201.426C833.318 201.437 833.653 201.455 833.88 201.477V205.568C833.744 205.534 833.431 205.483 832.943 205.415C832.466 205.335 831.96 205.295 831.426 205.295C830.153 205.295 829.017 205.562 828.017 206.097C827.028 206.619 826.244 207.347 825.664 208.278C825.096 209.199 824.812 210.25 824.812 211.432V228H820.789ZM848.829 228.545C846.306 228.545 844.13 227.989 842.301 226.875C840.483 225.75 839.079 224.182 838.091 222.17C837.113 220.148 836.625 217.795 836.625 215.114C836.625 212.432 837.113 210.068 838.091 208.023C839.079 205.966 840.454 204.364 842.216 203.216C843.988 202.057 846.056 201.477 848.42 201.477C849.784 201.477 851.13 201.705 852.46 202.159C853.789 202.614 855 203.352 856.091 204.375C857.181 205.386 858.051 206.727 858.699 208.398C859.346 210.068 859.67 212.125 859.67 214.568V216.273H839.488V212.795H855.579C855.579 211.318 855.284 210 854.693 208.841C854.113 207.682 853.284 206.767 852.204 206.097C851.136 205.426 849.875 205.091 848.42 205.091C846.818 205.091 845.431 205.489 844.261 206.284C843.102 207.068 842.21 208.091 841.585 209.352C840.96 210.614 840.647 211.966 840.647 213.409V215.727C840.647 217.705 840.988 219.381 841.67 220.756C842.363 222.119 843.324 223.159 844.551 223.875C845.778 224.58 847.204 224.932 848.829 224.932C849.886 224.932 850.841 224.784 851.693 224.489C852.556 224.182 853.301 223.727 853.926 223.125C854.551 222.511 855.034 221.75 855.375 220.841L859.261 221.932C858.852 223.25 858.164 224.409 857.199 225.409C856.233 226.398 855.039 227.17 853.619 227.727C852.199 228.273 850.602 228.545 848.829 228.545ZM884.335 207.682L880.721 208.705C880.494 208.102 880.159 207.517 879.716 206.949C879.284 206.369 878.693 205.892 877.943 205.517C877.193 205.142 876.233 204.955 875.062 204.955C873.46 204.955 872.125 205.324 871.056 206.062C870 206.79 869.471 207.716 869.471 208.841C869.471 209.841 869.835 210.631 870.562 211.21C871.289 211.79 872.426 212.273 873.971 212.659L877.858 213.614C880.199 214.182 881.943 215.051 883.091 216.222C884.238 217.381 884.812 218.875 884.812 220.705C884.812 222.205 884.38 223.545 883.517 224.727C882.664 225.909 881.471 226.841 879.937 227.523C878.403 228.205 876.619 228.545 874.585 228.545C871.914 228.545 869.704 227.966 867.954 226.807C866.204 225.648 865.096 223.955 864.63 221.727L868.449 220.773C868.812 222.182 869.5 223.239 870.511 223.943C871.534 224.648 872.869 225 874.517 225C876.392 225 877.88 224.602 878.983 223.807C880.096 223 880.653 222.034 880.653 220.909C880.653 220 880.335 219.239 879.699 218.625C879.062 218 878.085 217.534 876.767 217.227L872.403 216.205C870.005 215.636 868.244 214.756 867.119 213.562C866.005 212.358 865.449 210.852 865.449 209.045C865.449 207.568 865.863 206.261 866.693 205.125C867.534 203.989 868.676 203.097 870.119 202.449C871.574 201.801 873.221 201.477 875.062 201.477C877.653 201.477 879.687 202.045 881.164 203.182C882.653 204.318 883.71 205.818 884.335 207.682ZM901.845 228.545C899.322 228.545 897.146 227.989 895.316 226.875C893.498 225.75 892.095 224.182 891.106 222.17C890.129 220.148 889.64 217.795 889.64 215.114C889.64 212.432 890.129 210.068 891.106 208.023C892.095 205.966 893.47 204.364 895.231 203.216C897.004 202.057 899.072 201.477 901.436 201.477C902.799 201.477 904.146 201.705 905.476 202.159C906.805 202.614 908.015 203.352 909.106 204.375C910.197 205.386 911.066 206.727 911.714 208.398C912.362 210.068 912.686 212.125 912.686 214.568V216.273H892.504V212.795H908.595C908.595 211.318 908.299 210 907.708 208.841C907.129 207.682 906.299 206.767 905.22 206.097C904.152 205.426 902.89 205.091 901.436 205.091C899.833 205.091 898.447 205.489 897.277 206.284C896.118 207.068 895.226 208.091 894.601 209.352C893.976 210.614 893.663 211.966 893.663 213.409V215.727C893.663 217.705 894.004 219.381 894.686 220.756C895.379 222.119 896.339 223.159 897.566 223.875C898.794 224.58 900.22 224.932 901.845 224.932C902.902 224.932 903.856 224.784 904.708 224.489C905.572 224.182 906.316 223.727 906.941 223.125C907.566 222.511 908.049 221.75 908.39 220.841L912.277 221.932C911.868 223.25 911.18 224.409 910.214 225.409C909.248 226.398 908.055 227.17 906.635 227.727C905.214 228.273 903.618 228.545 901.845 228.545ZM926.51 228.614C924.851 228.614 923.345 228.301 921.993 227.676C920.64 227.04 919.566 226.125 918.771 224.932C917.976 223.727 917.578 222.273 917.578 220.568C917.578 219.068 917.873 217.852 918.464 216.92C919.055 215.977 919.845 215.239 920.833 214.705C921.822 214.17 922.913 213.773 924.106 213.511C925.311 213.239 926.521 213.023 927.737 212.864C929.328 212.659 930.618 212.506 931.606 212.403C932.606 212.29 933.333 212.102 933.788 211.841C934.254 211.58 934.487 211.125 934.487 210.477V210.341C934.487 208.659 934.027 207.352 933.106 206.42C932.197 205.489 930.816 205.023 928.964 205.023C927.044 205.023 925.538 205.443 924.447 206.284C923.356 207.125 922.589 208.023 922.146 208.977L918.328 207.614C919.01 206.023 919.919 204.784 921.055 203.898C922.203 203 923.453 202.375 924.805 202.023C926.169 201.659 927.51 201.477 928.828 201.477C929.669 201.477 930.635 201.58 931.726 201.784C932.828 201.977 933.89 202.381 934.913 202.994C935.947 203.608 936.805 204.534 937.487 205.773C938.169 207.011 938.51 208.67 938.51 210.75V228H934.487V224.455H934.282C934.01 225.023 933.555 225.631 932.919 226.278C932.282 226.926 931.436 227.477 930.379 227.932C929.322 228.386 928.032 228.614 926.51 228.614ZM927.123 225C928.714 225 930.055 224.688 931.146 224.062C932.248 223.438 933.078 222.631 933.635 221.642C934.203 220.653 934.487 219.614 934.487 218.523V214.841C934.316 215.045 933.941 215.233 933.362 215.403C932.794 215.562 932.135 215.705 931.385 215.83C930.646 215.943 929.924 216.045 929.22 216.136C928.527 216.216 927.964 216.284 927.532 216.341C926.487 216.477 925.51 216.699 924.601 217.006C923.703 217.301 922.976 217.75 922.419 218.352C921.873 218.943 921.601 219.75 921.601 220.773C921.601 222.17 922.118 223.227 923.152 223.943C924.197 224.648 925.521 225 927.123 225ZM945.852 228V201.818H949.738V205.773H950.011C950.488 204.477 951.352 203.426 952.602 202.619C953.852 201.812 955.261 201.409 956.829 201.409C957.125 201.409 957.494 201.415 957.937 201.426C958.38 201.437 958.716 201.455 958.943 201.477V205.568C958.806 205.534 958.494 205.483 958.005 205.415C957.528 205.335 957.022 205.295 956.488 205.295C955.216 205.295 954.079 205.562 953.079 206.097C952.091 206.619 951.306 207.347 950.727 208.278C950.159 209.199 949.875 210.25 949.875 211.432V228H945.852ZM973.551 228.545C971.096 228.545 968.983 227.966 967.21 226.807C965.437 225.648 964.074 224.051 963.119 222.017C962.164 219.983 961.687 217.659 961.687 215.045C961.687 212.386 962.176 210.04 963.153 208.006C964.142 205.96 965.517 204.364 967.278 203.216C969.051 202.057 971.119 201.477 973.483 201.477C975.324 201.477 976.983 201.818 978.46 202.5C979.937 203.182 981.147 204.136 982.091 205.364C983.034 206.591 983.619 208.023 983.846 209.659H979.824C979.517 208.466 978.835 207.409 977.778 206.489C976.733 205.557 975.324 205.091 973.551 205.091C971.983 205.091 970.608 205.5 969.426 206.318C968.255 207.125 967.341 208.267 966.681 209.744C966.034 211.21 965.71 212.932 965.71 214.909C965.71 216.932 966.028 218.693 966.664 220.193C967.312 221.693 968.221 222.858 969.392 223.688C970.574 224.517 971.96 224.932 973.551 224.932C974.596 224.932 975.545 224.75 976.397 224.386C977.25 224.023 977.971 223.5 978.562 222.818C979.153 222.136 979.574 221.318 979.824 220.364H983.846C983.619 221.909 983.056 223.301 982.159 224.54C981.272 225.767 980.096 226.744 978.63 227.472C977.176 228.188 975.483 228.545 973.551 228.545ZM993.75 212.25V228H989.727V193.091H993.75V205.909H994.091C994.704 204.557 995.625 203.483 996.852 202.688C998.091 201.881 999.738 201.477 1001.8 201.477C1003.58 201.477 1005.14 201.835 1006.48 202.551C1007.82 203.256 1008.86 204.341 1009.6 205.807C1010.35 207.261 1010.73 209.114 1010.73 211.364V228H1006.7V211.636C1006.7 209.557 1006.16 207.949 1005.08 206.812C1004.02 205.665 1002.53 205.091 1000.64 205.091C999.318 205.091 998.136 205.369 997.091 205.926C996.056 206.483 995.238 207.295 994.636 208.364C994.045 209.432 993.75 210.727 993.75 212.25Z" fill="black"/>
</svg>
