<svg viewBox="0 0 585 293" fill="currentColor" xmlns="http://www.w3.org/2000/svg">
<path d="M585 292.5L58.5 292.5L0 0L585 0V292.5Z" fill="currentColor"/>
<g filter="url(#filter0_d_437_1220)">
<path d="M86.0923 138L78.7031 111.818H83.804L88.5213 131.058H88.7642L93.8011 111.818H98.4418L103.491 131.071H103.722L108.439 111.818H113.54L106.151 138H101.472L96.2301 119.629H96.0256L90.7713 138H86.0923ZM123.313 138.384C121.344 138.384 119.644 137.974 118.212 137.156C116.789 136.33 115.694 135.162 114.927 133.653C114.16 132.136 113.776 130.351 113.776 128.297C113.776 126.277 114.16 124.504 114.927 122.979C115.702 121.445 116.785 120.251 118.174 119.399C119.563 118.538 121.195 118.108 123.07 118.108C124.281 118.108 125.423 118.304 126.496 118.696C127.579 119.08 128.533 119.676 129.36 120.486C130.195 121.295 130.852 122.327 131.329 123.58C131.806 124.824 132.045 126.307 132.045 128.028V129.447H115.95V126.328H127.609C127.6 125.442 127.408 124.653 127.033 123.963C126.658 123.264 126.134 122.714 125.461 122.314C124.796 121.913 124.021 121.713 123.134 121.713C122.188 121.713 121.357 121.943 120.641 122.403C119.925 122.855 119.367 123.452 118.967 124.193C118.575 124.926 118.374 125.732 118.366 126.609V129.332C118.366 130.474 118.575 131.455 118.992 132.273C119.41 133.082 119.994 133.705 120.744 134.139C121.494 134.565 122.371 134.778 123.377 134.778C124.05 134.778 124.66 134.685 125.205 134.497C125.751 134.301 126.224 134.016 126.624 133.641C127.025 133.266 127.327 132.801 127.532 132.247L131.853 132.733C131.58 133.875 131.06 134.872 130.293 135.724C129.535 136.568 128.563 137.224 127.379 137.693C126.194 138.153 124.839 138.384 123.313 138.384ZM140.588 111.818V138H135.96V111.818H140.588ZM153.912 138.384C151.952 138.384 150.268 137.953 148.862 137.092C147.464 136.232 146.386 135.043 145.628 133.526C144.878 132 144.503 130.244 144.503 128.259C144.503 126.264 144.886 124.504 145.653 122.979C146.42 121.445 147.503 120.251 148.901 119.399C150.307 118.538 151.969 118.108 153.886 118.108C155.48 118.108 156.891 118.402 158.118 118.99C159.354 119.57 160.338 120.392 161.071 121.457C161.804 122.514 162.222 123.75 162.324 125.165H157.901C157.722 124.219 157.295 123.43 156.622 122.8C155.957 122.161 155.067 121.841 153.95 121.841C153.004 121.841 152.173 122.097 151.457 122.608C150.741 123.111 150.183 123.835 149.783 124.781C149.391 125.727 149.195 126.861 149.195 128.182C149.195 129.52 149.391 130.67 149.783 131.634C150.175 132.588 150.724 133.325 151.432 133.845C152.148 134.357 152.987 134.612 153.95 134.612C154.632 134.612 155.241 134.484 155.778 134.229C156.324 133.964 156.78 133.585 157.146 133.091C157.513 132.597 157.764 131.996 157.901 131.288H162.324C162.213 132.678 161.804 133.909 161.097 134.983C160.389 136.048 159.426 136.884 158.207 137.489C156.989 138.085 155.557 138.384 153.912 138.384ZM174.689 138.384C172.772 138.384 171.11 137.962 169.703 137.118C168.297 136.274 167.206 135.094 166.431 133.577C165.664 132.06 165.28 130.287 165.28 128.259C165.28 126.23 165.664 124.453 166.431 122.928C167.206 121.402 168.297 120.217 169.703 119.374C171.11 118.53 172.772 118.108 174.689 118.108C176.607 118.108 178.269 118.53 179.675 119.374C181.081 120.217 182.168 121.402 182.935 122.928C183.711 124.453 184.098 126.23 184.098 128.259C184.098 130.287 183.711 132.06 182.935 133.577C182.168 135.094 181.081 136.274 179.675 137.118C178.269 137.962 176.607 138.384 174.689 138.384ZM174.715 134.676C175.755 134.676 176.624 134.391 177.323 133.82C178.022 133.24 178.542 132.464 178.882 131.493C179.232 130.521 179.407 129.439 179.407 128.246C179.407 127.044 179.232 125.957 178.882 124.986C178.542 124.006 178.022 123.226 177.323 122.646C176.624 122.067 175.755 121.777 174.715 121.777C173.65 121.777 172.763 122.067 172.056 122.646C171.357 123.226 170.833 124.006 170.483 124.986C170.142 125.957 169.972 127.044 169.972 128.246C169.972 129.439 170.142 130.521 170.483 131.493C170.833 132.464 171.357 133.24 172.056 133.82C172.763 134.391 173.65 134.676 174.715 134.676ZM188.026 138V118.364H192.45V121.7H192.68C193.089 120.575 193.766 119.697 194.712 119.067C195.658 118.428 196.788 118.108 198.1 118.108C199.43 118.108 200.55 118.432 201.462 119.08C202.383 119.719 203.031 120.592 203.406 121.7H203.61C204.045 120.609 204.778 119.74 205.809 119.092C206.849 118.436 208.08 118.108 209.504 118.108C211.31 118.108 212.785 118.679 213.927 119.821C215.069 120.963 215.64 122.629 215.64 124.82V138H210.999V125.536C210.999 124.317 210.675 123.426 210.028 122.864C209.38 122.293 208.587 122.007 207.65 122.007C206.533 122.007 205.66 122.357 205.029 123.055C204.407 123.746 204.096 124.645 204.096 125.753V138H199.558V125.344C199.558 124.33 199.251 123.52 198.637 122.915C198.032 122.31 197.239 122.007 196.259 122.007C195.594 122.007 194.989 122.178 194.444 122.518C193.898 122.851 193.464 123.324 193.14 123.938C192.816 124.543 192.654 125.25 192.654 126.06V138H188.026ZM229.028 138.384C227.059 138.384 225.359 137.974 223.927 137.156C222.504 136.33 221.409 135.162 220.642 133.653C219.875 132.136 219.491 130.351 219.491 128.297C219.491 126.277 219.875 124.504 220.642 122.979C221.417 121.445 222.5 120.251 223.889 119.399C225.278 118.538 226.91 118.108 228.785 118.108C229.995 118.108 231.137 118.304 232.211 118.696C233.294 119.08 234.248 119.676 235.075 120.486C235.91 121.295 236.566 122.327 237.044 123.58C237.521 124.824 237.76 126.307 237.76 128.028V129.447H221.664V126.328H233.324C233.315 125.442 233.123 124.653 232.748 123.963C232.373 123.264 231.849 122.714 231.176 122.314C230.511 121.913 229.735 121.713 228.849 121.713C227.903 121.713 227.072 121.943 226.356 122.403C225.64 122.855 225.082 123.452 224.681 124.193C224.289 124.926 224.089 125.732 224.081 126.609V129.332C224.081 130.474 224.289 131.455 224.707 132.273C225.125 133.082 225.708 133.705 226.458 134.139C227.208 134.565 228.086 134.778 229.092 134.778C229.765 134.778 230.375 134.685 230.92 134.497C231.466 134.301 231.939 134.016 232.339 133.641C232.74 133.266 233.042 132.801 233.247 132.247L237.568 132.733C237.295 133.875 236.775 134.872 236.008 135.724C235.25 136.568 234.278 137.224 233.093 137.693C231.909 138.153 230.554 138.384 229.028 138.384ZM260.41 118.364V121.943H249.121V118.364H260.41ZM251.908 113.659H256.536V132.094C256.536 132.716 256.63 133.193 256.817 133.526C257.013 133.849 257.269 134.071 257.585 134.19C257.9 134.31 258.249 134.369 258.633 134.369C258.923 134.369 259.187 134.348 259.425 134.305C259.673 134.263 259.86 134.224 259.988 134.19L260.768 137.808C260.521 137.893 260.167 137.987 259.707 138.089C259.255 138.192 258.701 138.251 258.045 138.268C256.886 138.303 255.842 138.128 254.913 137.744C253.984 137.352 253.246 136.747 252.701 135.929C252.164 135.111 251.9 134.088 251.908 132.861V113.659ZM272.635 138.384C270.717 138.384 269.055 137.962 267.649 137.118C266.243 136.274 265.152 135.094 264.376 133.577C263.609 132.06 263.225 130.287 263.225 128.259C263.225 126.23 263.609 124.453 264.376 122.928C265.152 121.402 266.243 120.217 267.649 119.374C269.055 118.53 270.717 118.108 272.635 118.108C274.552 118.108 276.214 118.53 277.62 119.374C279.027 120.217 280.113 121.402 280.88 122.928C281.656 124.453 282.044 126.23 282.044 128.259C282.044 130.287 281.656 132.06 280.88 133.577C280.113 135.094 279.027 136.274 277.62 137.118C276.214 137.962 274.552 138.384 272.635 138.384ZM272.66 134.676C273.7 134.676 274.569 134.391 275.268 133.82C275.967 133.24 276.487 132.464 276.828 131.493C277.177 130.521 277.352 129.439 277.352 128.246C277.352 127.044 277.177 125.957 276.828 124.986C276.487 124.006 275.967 123.226 275.268 122.646C274.569 122.067 273.7 121.777 272.66 121.777C271.595 121.777 270.708 122.067 270.001 122.646C269.302 123.226 268.778 124.006 268.429 124.986C268.088 125.957 267.917 127.044 267.917 128.246C267.917 129.439 268.088 130.521 268.429 131.493C268.778 132.464 269.302 133.24 270.001 133.82C270.708 134.391 271.595 134.676 272.66 134.676ZM85.3253 155.818V182H80.5824V155.818H85.3253ZM94.8846 170.494V182H90.2567V162.364H94.68V165.7H94.9102C95.3619 164.601 96.082 163.727 97.0707 163.08C98.0678 162.432 99.2994 162.108 100.765 162.108C102.12 162.108 103.301 162.398 104.306 162.977C105.321 163.557 106.105 164.396 106.659 165.496C107.221 166.595 107.498 167.929 107.49 169.497V182H102.862V170.213C102.862 168.901 102.521 167.874 101.839 167.132C101.166 166.391 100.233 166.02 99.0394 166.02C98.2298 166.02 97.5096 166.199 96.8789 166.557C96.2567 166.906 95.7667 167.413 95.4087 168.078C95.0593 168.743 94.8846 169.548 94.8846 170.494ZM122 162.364V165.943H110.711V162.364H122ZM113.498 157.659H118.126V176.094C118.126 176.716 118.22 177.193 118.407 177.526C118.603 177.849 118.859 178.071 119.174 178.19C119.49 178.31 119.839 178.369 120.223 178.369C120.512 178.369 120.777 178.348 121.015 178.305C121.262 178.263 121.45 178.224 121.578 178.19L122.358 181.808C122.11 181.893 121.757 181.987 121.297 182.089C120.845 182.192 120.291 182.251 119.635 182.268C118.475 182.303 117.431 182.128 116.502 181.744C115.574 181.352 114.836 180.747 114.291 179.929C113.754 179.111 113.49 178.088 113.498 176.861V157.659ZM134.352 182.384C132.384 182.384 130.683 181.974 129.251 181.156C127.828 180.33 126.733 179.162 125.966 177.653C125.199 176.136 124.815 174.351 124.815 172.297C124.815 170.277 125.199 168.504 125.966 166.979C126.741 165.445 127.824 164.251 129.213 163.399C130.602 162.538 132.234 162.108 134.109 162.108C135.32 162.108 136.462 162.304 137.536 162.696C138.618 163.08 139.572 163.676 140.399 164.486C141.234 165.295 141.891 166.327 142.368 167.58C142.845 168.824 143.084 170.307 143.084 172.028V173.447H126.989V170.328H138.648C138.639 169.442 138.447 168.653 138.072 167.963C137.697 167.264 137.173 166.714 136.5 166.314C135.835 165.913 135.06 165.713 134.173 165.713C133.227 165.713 132.396 165.943 131.68 166.403C130.964 166.855 130.406 167.452 130.006 168.193C129.614 168.926 129.413 169.732 129.405 170.609V173.332C129.405 174.474 129.614 175.455 130.031 176.273C130.449 177.082 131.033 177.705 131.783 178.139C132.533 178.565 133.411 178.778 134.416 178.778C135.089 178.778 135.699 178.685 136.244 178.497C136.79 178.301 137.263 178.016 137.663 177.641C138.064 177.266 138.366 176.801 138.571 176.247L142.892 176.733C142.619 177.875 142.099 178.872 141.332 179.724C140.574 180.568 139.602 181.224 138.418 181.693C137.233 182.153 135.878 182.384 134.352 182.384ZM146.999 182V162.364H151.486V165.636H151.691C152.049 164.503 152.662 163.629 153.532 163.016C154.409 162.393 155.411 162.082 156.536 162.082C156.792 162.082 157.077 162.095 157.392 162.121C157.716 162.138 157.985 162.168 158.198 162.21V166.467C158.002 166.399 157.691 166.339 157.265 166.288C156.847 166.229 156.442 166.199 156.05 166.199C155.206 166.199 154.448 166.382 153.775 166.749C153.11 167.107 152.586 167.605 152.202 168.244C151.819 168.884 151.627 169.621 151.627 170.456V182H146.999ZM166.571 182.396C165.327 182.396 164.206 182.175 163.209 181.732C162.221 181.28 161.436 180.615 160.857 179.737C160.286 178.859 160 177.777 160 176.49C160 175.382 160.205 174.466 160.614 173.741C161.023 173.017 161.581 172.438 162.289 172.003C162.996 171.568 163.793 171.24 164.679 171.018C165.574 170.788 166.499 170.622 167.453 170.52C168.604 170.401 169.537 170.294 170.253 170.2C170.969 170.098 171.489 169.945 171.813 169.74C172.145 169.527 172.311 169.199 172.311 168.756V168.679C172.311 167.716 172.026 166.97 171.455 166.442C170.884 165.913 170.061 165.649 168.988 165.649C167.854 165.649 166.955 165.896 166.29 166.391C165.634 166.885 165.191 167.469 164.961 168.142L160.64 167.528C160.98 166.335 161.543 165.338 162.327 164.537C163.111 163.727 164.07 163.122 165.203 162.722C166.337 162.312 167.59 162.108 168.962 162.108C169.908 162.108 170.85 162.219 171.787 162.44C172.725 162.662 173.581 163.028 174.357 163.54C175.132 164.043 175.755 164.729 176.223 165.598C176.701 166.467 176.939 167.554 176.939 168.858V182H172.49V179.303H172.337C172.056 179.848 171.659 180.359 171.148 180.837C170.645 181.305 170.01 181.685 169.243 181.974C168.485 182.256 167.594 182.396 166.571 182.396ZM167.773 178.996C168.702 178.996 169.507 178.812 170.189 178.446C170.871 178.071 171.395 177.577 171.762 176.963C172.137 176.349 172.324 175.68 172.324 174.956V172.642C172.179 172.761 171.932 172.872 171.583 172.974C171.242 173.077 170.858 173.166 170.432 173.243C170.006 173.32 169.584 173.388 169.167 173.447C168.749 173.507 168.387 173.558 168.08 173.601C167.39 173.695 166.772 173.848 166.226 174.061C165.681 174.274 165.25 174.572 164.935 174.956C164.62 175.331 164.462 175.817 164.462 176.413C164.462 177.266 164.773 177.909 165.395 178.344C166.017 178.778 166.81 178.996 167.773 178.996ZM190.158 182.384C188.198 182.384 186.515 181.953 185.108 181.092C183.711 180.232 182.632 179.043 181.874 177.526C181.124 176 180.749 174.244 180.749 172.259C180.749 170.264 181.132 168.504 181.9 166.979C182.667 165.445 183.749 164.251 185.147 163.399C186.553 162.538 188.215 162.108 190.132 162.108C191.726 162.108 193.137 162.402 194.364 162.99C195.6 163.57 196.584 164.392 197.317 165.457C198.05 166.514 198.468 167.75 198.57 169.165H194.147C193.968 168.219 193.542 167.43 192.868 166.8C192.203 166.161 191.313 165.841 190.196 165.841C189.25 165.841 188.419 166.097 187.703 166.608C186.988 167.111 186.429 167.835 186.029 168.781C185.637 169.727 185.441 170.861 185.441 172.182C185.441 173.52 185.637 174.67 186.029 175.634C186.421 176.588 186.971 177.325 187.678 177.845C188.394 178.357 189.233 178.612 190.196 178.612C190.878 178.612 191.488 178.484 192.025 178.229C192.57 177.964 193.026 177.585 193.392 177.091C193.759 176.597 194.01 175.996 194.147 175.288H198.57C198.459 176.678 198.05 177.909 197.343 178.983C196.635 180.048 195.672 180.884 194.453 181.489C193.235 182.085 191.803 182.384 190.158 182.384ZM212.175 162.364V165.943H200.887V162.364H212.175ZM203.674 157.659H208.302V176.094C208.302 176.716 208.396 177.193 208.583 177.526C208.779 177.849 209.035 178.071 209.35 178.19C209.665 178.31 210.015 178.369 210.398 178.369C210.688 178.369 210.952 178.348 211.191 178.305C211.438 178.263 211.626 178.224 211.754 178.19L212.533 181.808C212.286 181.893 211.933 181.987 211.472 182.089C211.021 182.192 210.467 182.251 209.81 182.268C208.651 182.303 207.607 182.128 206.678 181.744C205.749 181.352 205.012 180.747 204.467 179.929C203.93 179.111 203.665 178.088 203.674 176.861V157.659ZM216.046 182V162.364H220.674V182H216.046ZM218.373 159.577C217.64 159.577 217.009 159.334 216.48 158.848C215.952 158.354 215.688 157.761 215.688 157.071C215.688 156.372 215.952 155.78 216.48 155.294C217.009 154.8 217.64 154.553 218.373 154.553C219.114 154.553 219.745 154.8 220.265 155.294C220.793 155.78 221.057 156.372 221.057 157.071C221.057 157.761 220.793 158.354 220.265 158.848C219.745 159.334 219.114 159.577 218.373 159.577ZM242.972 162.364L235.979 182H230.866L223.873 162.364H228.808L233.32 176.95H233.525L238.05 162.364H242.972ZM254.2 182.384C252.231 182.384 250.531 181.974 249.099 181.156C247.676 180.33 246.581 179.162 245.814 177.653C245.047 176.136 244.663 174.351 244.663 172.297C244.663 170.277 245.047 168.504 245.814 166.979C246.589 165.445 247.672 164.251 249.061 163.399C250.45 162.538 252.082 162.108 253.957 162.108C255.167 162.108 256.309 162.304 257.383 162.696C258.466 163.08 259.42 163.676 260.247 164.486C261.082 165.295 261.738 166.327 262.216 167.58C262.693 168.824 262.931 170.307 262.931 172.028V173.447H246.836V170.328H258.495C258.487 169.442 258.295 168.653 257.92 167.963C257.545 167.264 257.021 166.714 256.348 166.314C255.683 165.913 254.907 165.713 254.021 165.713C253.075 165.713 252.244 165.943 251.528 166.403C250.812 166.855 250.254 167.452 249.853 168.193C249.461 168.926 249.261 169.732 249.252 170.609V173.332C249.252 174.474 249.461 175.455 249.879 176.273C250.297 177.082 250.88 177.705 251.63 178.139C252.38 178.565 253.258 178.778 254.264 178.778C254.937 178.778 255.547 178.685 256.092 178.497C256.637 178.301 257.11 178.016 257.511 177.641C257.912 177.266 258.214 176.801 258.419 176.247L262.74 176.733C262.467 177.875 261.947 178.872 261.18 179.724C260.422 180.568 259.45 181.224 258.265 181.693C257.081 182.153 255.725 182.384 254.2 182.384ZM298.391 164.652H293.61C293.474 163.868 293.222 163.173 292.856 162.568C292.489 161.955 292.033 161.435 291.488 161.009C290.942 160.582 290.32 160.263 289.621 160.05C288.931 159.828 288.185 159.717 287.384 159.717C285.961 159.717 284.7 160.075 283.6 160.791C282.501 161.499 281.64 162.538 281.018 163.911C280.396 165.274 280.085 166.94 280.085 168.909C280.085 170.912 280.396 172.599 281.018 173.972C281.648 175.335 282.509 176.366 283.6 177.065C284.7 177.756 285.957 178.101 287.371 178.101C288.156 178.101 288.888 177.999 289.57 177.794C290.261 177.581 290.879 177.27 291.424 176.861C291.978 176.452 292.442 175.949 292.817 175.352C293.201 174.756 293.465 174.074 293.61 173.307L298.391 173.332C298.212 174.577 297.825 175.744 297.228 176.835C296.64 177.926 295.869 178.889 294.914 179.724C293.96 180.551 292.843 181.199 291.565 181.668C290.286 182.128 288.867 182.358 287.308 182.358C285.006 182.358 282.952 181.825 281.146 180.76C279.339 179.695 277.915 178.156 276.876 176.145C275.836 174.134 275.316 171.722 275.316 168.909C275.316 166.088 275.84 163.676 276.888 161.673C277.937 159.662 279.364 158.124 281.171 157.058C282.978 155.993 285.023 155.46 287.308 155.46C288.765 155.46 290.12 155.665 291.373 156.074C292.626 156.483 293.742 157.084 294.722 157.876C295.702 158.661 296.508 159.624 297.138 160.766C297.778 161.899 298.195 163.195 298.391 164.652ZM311.096 182.384C309.178 182.384 307.516 181.962 306.11 181.118C304.703 180.274 303.613 179.094 302.837 177.577C302.07 176.06 301.686 174.287 301.686 172.259C301.686 170.23 302.07 168.453 302.837 166.928C303.613 165.402 304.703 164.217 306.11 163.374C307.516 162.53 309.178 162.108 311.096 162.108C313.013 162.108 314.675 162.53 316.081 163.374C317.488 164.217 318.574 165.402 319.341 166.928C320.117 168.453 320.505 170.23 320.505 172.259C320.505 174.287 320.117 176.06 319.341 177.577C318.574 179.094 317.488 180.274 316.081 181.118C314.675 181.962 313.013 182.384 311.096 182.384ZM311.121 178.676C312.161 178.676 313.03 178.391 313.729 177.82C314.428 177.24 314.948 176.464 315.289 175.493C315.638 174.521 315.813 173.439 315.813 172.246C315.813 171.044 315.638 169.957 315.289 168.986C314.948 168.006 314.428 167.226 313.729 166.646C313.03 166.067 312.161 165.777 311.121 165.777C310.056 165.777 309.169 166.067 308.462 166.646C307.763 167.226 307.239 168.006 306.89 168.986C306.549 169.957 306.378 171.044 306.378 172.246C306.378 173.439 306.549 174.521 306.89 175.493C307.239 176.464 307.763 177.24 308.462 177.82C309.169 178.391 310.056 178.676 311.121 178.676ZM324.433 182V162.364H328.856V165.7H329.086C329.495 164.575 330.173 163.697 331.119 163.067C332.065 162.428 333.194 162.108 334.506 162.108C335.836 162.108 336.957 162.432 337.869 163.08C338.789 163.719 339.437 164.592 339.812 165.7H340.016C340.451 164.609 341.184 163.74 342.215 163.092C343.255 162.436 344.487 162.108 345.91 162.108C347.717 162.108 349.191 162.679 350.333 163.821C351.475 164.963 352.046 166.629 352.046 168.82V182H347.406V169.536C347.406 168.317 347.082 167.426 346.434 166.864C345.786 166.293 344.994 166.007 344.056 166.007C342.94 166.007 342.066 166.357 341.435 167.055C340.813 167.746 340.502 168.645 340.502 169.753V182H335.964V169.344C335.964 168.33 335.657 167.52 335.043 166.915C334.438 166.31 333.646 166.007 332.665 166.007C332.001 166.007 331.396 166.178 330.85 166.518C330.305 166.851 329.87 167.324 329.546 167.938C329.222 168.543 329.06 169.25 329.06 170.06V182H324.433ZM356.741 189.364V162.364H361.292V165.611H361.561C361.799 165.134 362.136 164.626 362.571 164.089C363.005 163.544 363.593 163.08 364.335 162.696C365.076 162.304 366.022 162.108 367.173 162.108C368.69 162.108 370.058 162.496 371.277 163.271C372.504 164.038 373.475 165.176 374.191 166.685C374.916 168.185 375.278 170.026 375.278 172.207C375.278 174.364 374.924 176.196 374.217 177.705C373.51 179.213 372.547 180.364 371.328 181.156C370.109 181.949 368.728 182.345 367.186 182.345C366.061 182.345 365.127 182.158 364.386 181.783C363.645 181.408 363.048 180.956 362.596 180.428C362.153 179.891 361.808 179.384 361.561 178.906H361.369V189.364H356.741ZM361.279 172.182C361.279 173.452 361.458 174.564 361.816 175.518C362.183 176.473 362.707 177.219 363.389 177.756C364.079 178.284 364.914 178.548 365.895 178.548C366.917 178.548 367.774 178.276 368.464 177.73C369.154 177.176 369.674 176.422 370.024 175.467C370.382 174.504 370.561 173.409 370.561 172.182C370.561 170.963 370.386 169.881 370.037 168.935C369.687 167.989 369.167 167.247 368.477 166.71C367.787 166.173 366.926 165.905 365.895 165.905C364.906 165.905 364.066 166.165 363.376 166.685C362.686 167.205 362.162 167.933 361.804 168.871C361.454 169.808 361.279 170.912 361.279 172.182ZM391.757 173.741V162.364H396.385V182H391.897V178.51H391.693C391.25 179.609 390.521 180.509 389.507 181.207C388.501 181.906 387.261 182.256 385.787 182.256C384.5 182.256 383.362 181.97 382.373 181.399C381.393 180.82 380.626 179.98 380.072 178.881C379.518 177.773 379.241 176.435 379.241 174.866V162.364H383.869V174.151C383.869 175.395 384.21 176.384 384.892 177.116C385.574 177.849 386.468 178.216 387.576 178.216C388.258 178.216 388.919 178.05 389.558 177.717C390.197 177.385 390.721 176.891 391.13 176.234C391.548 175.57 391.757 174.739 391.757 173.741ZM410.949 162.364V165.943H399.661V162.364H410.949ZM402.447 157.659H407.075V176.094C407.075 176.716 407.169 177.193 407.357 177.526C407.553 177.849 407.808 178.071 408.124 178.19C408.439 178.31 408.788 178.369 409.172 178.369C409.462 178.369 409.726 178.348 409.964 178.305C410.212 178.263 410.399 178.224 410.527 178.19L411.307 181.808C411.06 181.893 410.706 181.987 410.246 182.089C409.794 182.192 409.24 182.251 408.584 182.268C407.425 182.303 406.381 182.128 405.452 181.744C404.523 181.352 403.786 180.747 403.24 179.929C402.703 179.111 402.439 178.088 402.447 176.861V157.659ZM414.819 182V162.364H419.447V182H414.819ZM417.146 159.577C416.413 159.577 415.782 159.334 415.254 158.848C414.725 158.354 414.461 157.761 414.461 157.071C414.461 156.372 414.725 155.78 415.254 155.294C415.782 154.8 416.413 154.553 417.146 154.553C417.887 154.553 418.518 154.8 419.038 155.294C419.566 155.78 419.831 156.372 419.831 157.071C419.831 157.761 419.566 158.354 419.038 158.848C418.518 159.334 417.887 159.577 417.146 159.577ZM428.834 170.494V182H424.206V162.364H428.629V165.7H428.859C429.311 164.601 430.031 163.727 431.02 163.08C432.017 162.432 433.249 162.108 434.714 162.108C436.07 162.108 437.25 162.398 438.256 162.977C439.27 163.557 440.054 164.396 440.608 165.496C441.17 166.595 441.447 167.929 441.439 169.497V182H436.811V170.213C436.811 168.901 436.47 167.874 435.788 167.132C435.115 166.391 434.182 166.02 432.989 166.02C432.179 166.02 431.459 166.199 430.828 166.557C430.206 166.906 429.716 167.413 429.358 168.078C429.009 168.743 428.834 169.548 428.834 170.494ZM454.683 189.773C453.021 189.773 451.594 189.547 450.401 189.095C449.207 188.652 448.249 188.055 447.524 187.305C446.8 186.555 446.297 185.724 446.016 184.812L450.183 183.803C450.371 184.186 450.643 184.565 451.001 184.94C451.359 185.324 451.841 185.639 452.446 185.886C453.06 186.142 453.831 186.27 454.76 186.27C456.072 186.27 457.159 185.95 458.02 185.311C458.881 184.68 459.311 183.641 459.311 182.192V178.472H459.081C458.842 178.949 458.493 179.439 458.033 179.942C457.581 180.445 456.98 180.866 456.23 181.207C455.489 181.548 454.555 181.719 453.43 181.719C451.922 181.719 450.554 181.365 449.327 180.658C448.108 179.942 447.136 178.876 446.412 177.462C445.696 176.038 445.338 174.257 445.338 172.118C445.338 169.962 445.696 168.142 446.412 166.659C447.136 165.168 448.112 164.038 449.339 163.271C450.567 162.496 451.935 162.108 453.443 162.108C454.594 162.108 455.54 162.304 456.281 162.696C457.031 163.08 457.628 163.544 458.071 164.089C458.514 164.626 458.851 165.134 459.081 165.611H459.337V162.364H463.901V182.32C463.901 183.999 463.5 185.388 462.699 186.487C461.898 187.587 460.803 188.409 459.413 188.955C458.024 189.5 456.447 189.773 454.683 189.773ZM454.722 178.088C455.702 178.088 456.537 177.849 457.227 177.372C457.918 176.895 458.442 176.209 458.8 175.314C459.158 174.419 459.337 173.345 459.337 172.092C459.337 170.857 459.158 169.774 458.8 168.845C458.45 167.916 457.93 167.196 457.24 166.685C456.558 166.165 455.719 165.905 454.722 165.905C453.69 165.905 452.83 166.173 452.139 166.71C451.449 167.247 450.929 167.984 450.58 168.922C450.23 169.851 450.055 170.908 450.055 172.092C450.055 173.294 450.23 174.347 450.58 175.25C450.938 176.145 451.462 176.844 452.152 177.347C452.851 177.841 453.707 178.088 454.722 178.088ZM477.778 182V155.818H482.521V178.024H494.052V182H477.778ZM503.614 182.396C502.37 182.396 501.249 182.175 500.252 181.732C499.263 181.28 498.479 180.615 497.9 179.737C497.329 178.859 497.043 177.777 497.043 176.49C497.043 175.382 497.248 174.466 497.657 173.741C498.066 173.017 498.624 172.438 499.332 172.003C500.039 171.568 500.836 171.24 501.722 171.018C502.617 170.788 503.542 170.622 504.496 170.52C505.647 170.401 506.58 170.294 507.296 170.2C508.012 170.098 508.532 169.945 508.856 169.74C509.188 169.527 509.354 169.199 509.354 168.756V168.679C509.354 167.716 509.069 166.97 508.498 166.442C507.927 165.913 507.104 165.649 506.031 165.649C504.897 165.649 503.998 165.896 503.333 166.391C502.677 166.885 502.234 167.469 502.004 168.142L497.683 167.528C498.023 166.335 498.586 165.338 499.37 164.537C500.154 163.727 501.113 163.122 502.246 162.722C503.38 162.312 504.633 162.108 506.005 162.108C506.951 162.108 507.893 162.219 508.83 162.44C509.768 162.662 510.624 163.028 511.4 163.54C512.175 164.043 512.798 164.729 513.266 165.598C513.744 166.467 513.982 167.554 513.982 168.858V182H509.533V179.303H509.38C509.099 179.848 508.702 180.359 508.191 180.837C507.688 181.305 507.053 181.685 506.286 181.974C505.528 182.256 504.637 182.396 503.614 182.396ZM504.816 178.996C505.745 178.996 506.55 178.812 507.232 178.446C507.914 178.071 508.438 177.577 508.805 176.963C509.18 176.349 509.367 175.68 509.367 174.956V172.642C509.222 172.761 508.975 172.872 508.626 172.974C508.285 173.077 507.901 173.166 507.475 173.243C507.049 173.32 506.627 173.388 506.21 173.447C505.792 173.507 505.43 173.558 505.123 173.601C504.433 173.695 503.815 173.848 503.269 174.061C502.724 174.274 502.293 174.572 501.978 174.956C501.663 175.331 501.505 175.817 501.505 176.413C501.505 177.266 501.816 177.909 502.438 178.344C503.06 178.778 503.853 178.996 504.816 178.996ZM518.84 182V155.818H523.468V165.611H523.66C523.898 165.134 524.235 164.626 524.67 164.089C525.104 163.544 525.692 163.08 526.434 162.696C527.175 162.304 528.121 162.108 529.272 162.108C530.789 162.108 532.157 162.496 533.376 163.271C534.603 164.038 535.575 165.176 536.29 166.685C537.015 168.185 537.377 170.026 537.377 172.207C537.377 174.364 537.023 176.196 536.316 177.705C535.609 179.213 534.646 180.364 533.427 181.156C532.208 181.949 530.827 182.345 529.285 182.345C528.16 182.345 527.227 182.158 526.485 181.783C525.744 181.408 525.147 180.956 524.695 180.428C524.252 179.891 523.907 179.384 523.66 178.906H523.391V182H518.84ZM523.379 172.182C523.379 173.452 523.558 174.564 523.915 175.518C524.282 176.473 524.806 177.219 525.488 177.756C526.178 178.284 527.013 178.548 527.994 178.548C529.016 178.548 529.873 178.276 530.563 177.73C531.254 177.176 531.773 176.422 532.123 175.467C532.481 174.504 532.66 173.409 532.66 172.182C532.66 170.963 532.485 169.881 532.136 168.935C531.786 167.989 531.266 167.247 530.576 166.71C529.886 166.173 529.025 165.905 527.994 165.905C527.005 165.905 526.165 166.165 525.475 166.685C524.785 167.205 524.261 167.933 523.903 168.871C523.553 169.808 523.379 170.912 523.379 172.182ZM546.975 155.818L546.553 174.304H542.436L542.027 155.818H546.975ZM544.495 182.281C543.719 182.281 543.054 182.009 542.5 181.463C541.955 180.918 541.682 180.253 541.682 179.469C541.682 178.702 541.955 178.045 542.5 177.5C543.054 176.955 543.719 176.682 544.495 176.682C545.253 176.682 545.909 176.955 546.463 177.5C547.026 178.045 547.307 178.702 547.307 179.469C547.307 179.989 547.175 180.462 546.911 180.888C546.655 181.314 546.314 181.655 545.888 181.911C545.471 182.158 545.006 182.281 544.495 182.281Z" fill="white"/>
</g>
<defs>
<filter id="filter0_d_437_1220" x="76.7031" y="111.818" width="472.604" height="81.9541" filterUnits="userSpaceOnUse" color-interpolation-filters="sRGB">
<feFlood flood-opacity="0" result="BackgroundImageFix"/>
<feColorMatrix in="SourceAlpha" type="matrix" values="0 0 0 0 0 0 0 0 0 0 0 0 0 0 0 0 0 0 127 0" result="hardAlpha"/>
<feOffset dy="2"/>
<feGaussianBlur stdDeviation="1"/>
<feComposite in2="hardAlpha" operator="out"/>
<feColorMatrix type="matrix" values="0 0 0 0 0 0 0 0 0 0 0 0 0 0 0 0 0 0 0.4 0"/>
<feBlend mode="normal" in2="BackgroundImageFix" result="effect1_dropShadow_437_1220"/>
<feBlend mode="normal" in="SourceGraphic" in2="effect1_dropShadow_437_1220" result="shape"/>
</filter>
</defs>
</svg>
