<?xml version="1.0" encoding="utf-8"?>
<!-- Generator: Adobe Illustrator 21.0.0, SVG Export Plug-In . SVG Version: 6.00 Build 0)  -->
<svg version="1.1" id="레이어_1" xmlns="http://www.w3.org/2000/svg" xmlns:xlink="http://www.w3.org/1999/xlink" x="0px"
	 y="0px" viewBox="0 0 209.7 66.2" style="enable-background:new 0 0 209.7 66.2;" xml:space="preserve">
<style type="text/css">
	.st0{clip-path:url(#SVGID_2_);fill:url(#SVGID_3_);}
	.st1{clip-path:url(#SVGID_5_);fill:url(#SVGID_6_);}
	.st2{clip-path:url(#SVGID_8_);fill:url(#SVGID_9_);}
	.st3{clip-path:url(#SVGID_11_);fill:url(#SVGID_12_);}
</style>
<g>
	<defs>
		<path id="SVGID_1_" d="M13.9,17.6c0-2.3,1.8-4.1,4.1-4.1c2.3,0,4.1,1.8,4.1,4.1c0,2.3-1.8,4.1-4.1,4.1
			C15.7,21.7,13.9,19.8,13.9,17.6 M69.1,1.2c-14.7,0-26.6,11.9-26.6,26.6V38c0,5.3,1.6,10.2,4.3,14.3H28.2c-2.3,0-4.1-1.8-4.1-4.1
			V32.7c6-2.4,10.2-8.3,10.2-15.1c0-9-7.3-16.4-16.4-16.4S1.6,8.5,1.6,17.6c0,6.8,4.2,12.7,10.2,15.1v15.5c0,9,7.3,16.4,16.4,16.4
			h40.9h10.2c3.4,0,6.1-2.7,6.1-6.1c0-3.4-2.7-6.1-6.1-6.1H69.1c-7.9,0-14.3-6.4-14.3-14.3V27.8c0-7.9,6.4-14.3,14.3-14.3h10.2
			c3.4,0,6.1-2.7,6.1-6.1c0-3.4-2.7-6.1-6.1-6.1H69.1z"/>
	</defs>
	<clipPath id="SVGID_2_">
		<use xlink:href="#SVGID_1_"  style="overflow:visible;"/>
	</clipPath>
	
		<linearGradient id="SVGID_3_" gradientUnits="userSpaceOnUse" x1="-4.532" y1="1077.7627" x2="-3.532" y2="1077.7627" gradientTransform="matrix(206.8205 0 0 -206.8205 938.4245 222936.3594)">
		<stop  offset="0" style="stop-color:#2AF598"/>
		<stop  offset="0.1957" style="stop-color:#1CD7BB"/>
		<stop  offset="0.4008" style="stop-color:#10BED8"/>
		<stop  offset="0.6051" style="stop-color:#07ACEC"/>
		<stop  offset="0.8061" style="stop-color:#02A2F9"/>
		<stop  offset="1" style="stop-color:#009EFD"/>
	</linearGradient>
	<rect x="1.6" y="1.2" class="st0" width="83.8" height="63.4"/>
</g>
<g>
	<defs>
		<path id="SVGID_4_" d="M131.5,43.1c0-5.1,4.1-9.2,9.2-9.2c5.1,0,9.2,4.1,9.2,9.2c0,5.1-4.1,9.2-9.2,9.2
			C135.6,52.3,131.5,48.2,131.5,43.1 M88.5,7.3v40.9c0,9,7.3,16.4,16.4,16.4h35.8c3.8,0,7.3-1.1,10.3-2.8c1.3,1.9,3.4,3.1,5.9,2.7
			c3.1-0.4,5.3-3.2,5.3-6.3V28.1c0-3.1-2.2-5.9-5.3-6.3c-2.5-0.4-4.6,0.9-5.9,2.7c-0.7-0.4-1.4-0.7-2.1-1c-1.2-0.5-2.2-1.6-2.7-2.8
			c-0.9-2.2-3-3.7-5.5-3.7c-2.5,0-4.6,1.5-5.5,3.7c-0.5,1.2-1.4,2.2-2.6,2.7c-7.8,3.2-13.3,10.9-13.3,19.8c0,3.3,0.8,6.4,2.2,9.2
			h-16.5c-2.3,0-4.1-1.8-4.1-4.1V7.5c0-3.1-2.2-5.9-5.3-6.3c-0.3,0-0.5-0.1-0.8-0.1C91.3,1.2,88.5,4,88.5,7.3"/>
	</defs>
	<clipPath id="SVGID_5_">
		<use xlink:href="#SVGID_4_"  style="overflow:visible;"/>
	</clipPath>
	
		<linearGradient id="SVGID_6_" gradientUnits="userSpaceOnUse" x1="-4.532" y1="1077.762" x2="-3.532" y2="1077.762" gradientTransform="matrix(206.8205 0 0 -206.8205 938.4245 222936.3594)">
		<stop  offset="0" style="stop-color:#2AF598"/>
		<stop  offset="0.1957" style="stop-color:#1CD7BB"/>
		<stop  offset="0.4008" style="stop-color:#10BED8"/>
		<stop  offset="0.6051" style="stop-color:#07ACEC"/>
		<stop  offset="0.8061" style="stop-color:#02A2F9"/>
		<stop  offset="1" style="stop-color:#009EFD"/>
	</linearGradient>
	<rect x="88.5" y="1.2" class="st1" width="73.6" height="63.7"/>
</g>
<g>
	<defs>
		<path id="SVGID_7_" d="M177.5,43.1c0-5.1,4.1-9.2,9.2-9.2s9.2,4.1,9.2,9.2c0,5.1-4.1,9.2-9.2,9.2S177.5,48.2,177.5,43.1
			 M165.2,7.3v51.1c0,3.4,2.7,6.1,6.1,6.1c2.1,0,3.9-1.1,5-2.8c3.1,1.7,6.6,2.8,10.3,2.8c11.8,0,21.5-9.6,21.5-21.5
			c0-11.8-9.6-21.5-21.5-21.5c-3.3,0-6.4,0.8-9.2,2.2V7.3c0-3.4-2.7-6.1-6.1-6.1C167.9,1.2,165.2,4,165.2,7.3"/>
	</defs>
	<clipPath id="SVGID_8_">
		<use xlink:href="#SVGID_7_"  style="overflow:visible;"/>
	</clipPath>
	
		<linearGradient id="SVGID_9_" gradientUnits="userSpaceOnUse" x1="-4.532" y1="1077.7627" x2="-3.532" y2="1077.7627" gradientTransform="matrix(206.8205 0 0 -206.8205 938.4245 222936.3594)">
		<stop  offset="0" style="stop-color:#2AF598"/>
		<stop  offset="0.1957" style="stop-color:#1CD7BB"/>
		<stop  offset="0.4008" style="stop-color:#10BED8"/>
		<stop  offset="0.6051" style="stop-color:#07ACEC"/>
		<stop  offset="0.8061" style="stop-color:#02A2F9"/>
		<stop  offset="1" style="stop-color:#009EFD"/>
	</linearGradient>
	<rect x="165.2" y="1.2" class="st2" width="42.9" height="63.4"/>
</g>
<g>
	<defs>
		<path id="SVGID_10_" d="M136.5,9.4c0,2.3,1.8,4.1,4.1,4.1c2.3,0,4.1-1.8,4.1-4.1c0-2.3-1.8-4.1-4.1-4.1
			C138.3,5.3,136.5,7.2,136.5,9.4"/>
	</defs>
	<clipPath id="SVGID_11_">
		<use xlink:href="#SVGID_10_"  style="overflow:visible;"/>
	</clipPath>
	
		<linearGradient id="SVGID_12_" gradientUnits="userSpaceOnUse" x1="-4.532" y1="1077.7627" x2="-3.532" y2="1077.7627" gradientTransform="matrix(206.8205 0 0 -206.8205 938.4245 222912.875)">
		<stop  offset="0" style="stop-color:#2AF598"/>
		<stop  offset="0.1957" style="stop-color:#1CD7BB"/>
		<stop  offset="0.4008" style="stop-color:#10BED8"/>
		<stop  offset="0.6051" style="stop-color:#07ACEC"/>
		<stop  offset="0.8061" style="stop-color:#02A2F9"/>
		<stop  offset="1" style="stop-color:#009EFD"/>
	</linearGradient>
	<rect x="136.5" y="5.3" class="st3" width="8.2" height="8.2"/>
</g>
</svg>
