<svg viewBox="0 0 150 150" fill="currentColor" xmlns="http://www.w3.org/2000/svg">
<rect width="150" height="150" rx="75" fill="currentColor"/>
<path d="M65.5279 39.584C61.7119 39.584 58.6591 42.1528 58.6591 45.3638C58.6591 48.5748 61.7119 51.1436 65.5279 51.1436C69.3438 51.1436 72.3966 48.5748 72.3966 45.3638C72.3966 42.1528 69.3438 39.584 65.5279 39.584ZM87.1645 42.1528C87.1645 48.3951 90.1114 54.3818 95.357 58.7957C100.603 63.2097 107.717 65.6895 115.136 65.6895V61.4188C109.063 61.4188 103.24 59.389 98.9458 55.7759C94.652 52.1629 92.2397 47.2625 92.2397 42.1528H87.1645ZM97.315 42.1528C97.315 50.4372 105.29 57.1482 115.136 57.1482V52.8455C108.114 52.8455 102.428 48.061 102.428 42.1528H97.315ZM107.504 42.1528C107.504 43.856 108.308 45.4895 109.739 46.6938C111.17 47.8982 113.111 48.5748 115.136 48.5748V42.1528H107.504ZM57.5906 51.8822C56.9419 51.8822 56.2932 51.9785 55.6826 52.139L35 57.5656V74.2629H41.8688V62.4785L49.9205 60.3592L35 109.584H41.8688L52.8206 83.5427L61.7119 93.5289V109.584H68.5806V89.0014L59.0788 74.4234L61.8645 65.2078L65.9858 71.0519H84.6078V65.2721H70.7939L63.1619 54.5794C62.0172 52.9739 59.9565 51.8822 57.5906 51.8822Z" fill="white"/>
</svg>
