<svg width="1014" height="224" viewBox="0 0 1014 224" fill="none" xmlns="http://www.w3.org/2000/svg">
<path d="M260.541 129.595H285.153V37.004H260.541V129.595ZM392.065 37V56.294H423.026V129.595H447.629V56.294H478.586V37H392.065ZM357.786 73.6526H337.218C331.751 73.6526 327.331 71.3921 327.331 64.9743C327.331 58.5363 331.751 56.2919 337.218 56.2919H381.443V37.0019H334.303C316.707 37.0019 302.432 47.1604 302.432 64.9741C302.432 82.7839 316.707 92.9424 334.303 92.9424H355.465C360.92 92.9424 365.352 95.1989 365.352 101.637C365.352 108.059 360.92 110.307 355.465 110.307H305.845V129.597H357.786C375.394 129.597 389.649 119.455 389.649 101.637C389.649 83.8433 375.394 73.6525 357.786 73.6525M185.624 37L150.817 120.318L117.636 83.3037L159.124 37H131.022L91.7024 80.9581V37H67.0865V129.595H91.7024V85.6412L131.022 129.595H171.951L200.134 59.7679L220.605 111.098H188.067L195.799 129.596H253.329L214.644 37H185.624Z" fill="#1F4899"/>
<path d="M10 168.479C95.8618 180.687 183.616 187 272.843 187C362.065 187 449.815 180.687 535.669 168.479C449.815 156.286 362.065 149.969 272.843 149.969C183.616 149.969 95.8618 156.286 10 168.479Z" fill="url(#paint0_linear_357_2318)"/>
<path d="M586.476 46.1818C586.118 43.1591 584.666 40.8125 582.121 39.142C579.575 37.4716 576.453 36.6364 572.754 36.6364C570.05 36.6364 567.683 37.0739 565.655 37.9489C563.646 38.8239 562.075 40.027 560.942 41.5582C559.828 43.0895 559.271 44.8295 559.271 46.7784C559.271 48.4091 559.659 49.8111 560.435 50.9844C561.23 52.1378 562.244 53.1023 563.477 53.8778C564.71 54.6335 566.003 55.2599 567.355 55.7571C568.708 56.2344 569.95 56.6222 571.084 56.9205L577.289 58.5909C578.879 59.0085 580.649 59.5852 582.598 60.321C584.567 61.0568 586.446 62.0611 588.236 63.3338C590.046 64.5866 591.537 66.1974 592.71 68.1662C593.884 70.1349 594.47 72.5511 594.47 75.4148C594.47 78.7159 593.605 81.6989 591.875 84.3636C590.165 87.0284 587.659 89.1463 584.358 90.7173C581.077 92.2884 577.09 93.0739 572.396 93.0739C568.021 93.0739 564.233 92.3679 561.031 90.956C557.85 89.544 555.344 87.5753 553.514 85.0497C551.705 82.5241 550.681 79.5909 550.442 76.25H558.078C558.277 78.5568 559.053 80.4659 560.405 81.9773C561.777 83.4687 563.507 84.5824 565.595 85.3182C567.703 86.0341 569.97 86.392 572.396 86.392C575.22 86.392 577.756 85.9347 580.003 85.0199C582.25 84.0852 584.03 82.7926 585.342 81.142C586.655 79.4716 587.311 77.5227 587.311 75.2955C587.311 73.267 586.744 71.6165 585.611 70.3438C584.477 69.071 582.986 68.0369 581.137 67.2415C579.287 66.446 577.289 65.75 575.141 65.1534L567.624 63.0057C562.851 61.6335 559.073 59.6747 556.289 57.1293C553.504 54.5838 552.112 51.2528 552.112 47.1364C552.112 43.7159 553.037 40.733 554.887 38.1875C556.756 35.6222 559.262 33.6335 562.404 32.2216C565.565 30.7898 569.095 30.0739 572.993 30.0739C576.931 30.0739 580.431 30.7798 583.493 32.1918C586.556 33.5838 588.982 35.4929 590.771 37.919C592.581 40.3452 593.536 43.0994 593.635 46.1818H586.476ZM624.292 92.9545C619.997 92.9545 616.298 91.9403 613.196 89.9119C610.094 87.8835 607.707 85.0895 606.037 81.5298C604.366 77.9702 603.531 73.9034 603.531 69.3295C603.531 64.6761 604.386 60.5696 606.096 57.0099C607.827 53.4304 610.233 50.6364 613.315 48.6278C616.417 46.5994 620.037 45.5852 624.173 45.5852C627.395 45.5852 630.298 46.1818 632.883 47.375C635.469 48.5682 637.586 50.2386 639.237 52.3864C640.888 54.5341 641.912 57.0398 642.309 59.9034H635.27C634.733 57.8153 633.54 55.9659 631.69 54.3551C629.861 52.7244 627.395 51.9091 624.292 51.9091C621.548 51.9091 619.142 52.625 617.074 54.0568C615.025 55.4687 613.425 57.4673 612.271 60.0526C611.138 62.6179 610.571 65.6307 610.571 69.0909C610.571 72.6307 611.128 75.7131 612.241 78.3381C613.375 80.9631 614.966 83.0014 617.014 84.4531C619.082 85.9048 621.508 86.6307 624.292 86.6307C626.122 86.6307 627.782 86.3125 629.274 85.6761C630.765 85.0398 632.028 84.125 633.062 82.9318C634.096 81.7386 634.832 80.3068 635.27 78.6364H642.309C641.912 81.3409 640.927 83.777 639.356 85.9446C637.805 88.0923 635.747 89.8026 633.182 91.0753C630.636 92.3281 627.673 92.9545 624.292 92.9545ZM659.64 64.4375V92H652.601V30.9091H659.64V53.3409H660.237C661.311 50.9744 662.922 49.0952 665.069 47.7031C667.237 46.2912 670.121 45.5852 673.72 45.5852C676.842 45.5852 679.577 46.2116 681.923 47.4645C684.27 48.6974 686.089 50.5966 687.382 53.1619C688.694 55.7074 689.351 58.9489 689.351 62.8864V92H682.311V63.3636C682.311 59.7244 681.366 56.9105 679.477 54.9219C677.608 52.9134 675.013 51.9091 671.692 51.9091C669.385 51.9091 667.317 52.3963 665.487 53.3707C663.677 54.3452 662.246 55.767 661.192 57.6364C660.157 59.5057 659.64 61.7727 659.64 64.4375ZM720.843 92.9545C716.707 92.9545 713.078 91.9702 709.955 90.0014C706.853 88.0327 704.427 85.2784 702.677 81.7386C700.947 78.1989 700.082 74.0625 700.082 69.3295C700.082 64.5568 700.947 60.3906 702.677 56.831C704.427 53.2713 706.853 50.5071 709.955 48.5384C713.078 46.5696 716.707 45.5852 720.843 45.5852C724.98 45.5852 728.599 46.5696 731.701 48.5384C734.823 50.5071 737.249 53.2713 738.98 56.831C740.73 60.3906 741.605 64.5568 741.605 69.3295C741.605 74.0625 740.73 78.1989 738.98 81.7386C737.249 85.2784 734.823 88.0327 731.701 90.0014C728.599 91.9702 724.98 92.9545 720.843 92.9545ZM720.843 86.6307C723.985 86.6307 726.57 85.8253 728.599 84.2145C730.627 82.6037 732.129 80.4858 733.103 77.8608C734.078 75.2358 734.565 72.392 734.565 69.3295C734.565 66.267 734.078 63.4134 733.103 60.7685C732.129 58.1236 730.627 55.9858 728.599 54.3551C726.57 52.7244 723.985 51.9091 720.843 51.9091C717.701 51.9091 715.116 52.7244 713.088 54.3551C711.059 55.9858 709.558 58.1236 708.583 60.7685C707.609 63.4134 707.122 66.267 707.122 69.3295C707.122 72.392 707.609 75.2358 708.583 77.8608C709.558 80.4858 711.059 82.6037 713.088 84.2145C715.116 85.8253 717.701 86.6307 720.843 86.6307ZM770.964 92.9545C766.828 92.9545 763.199 91.9702 760.077 90.0014C756.974 88.0327 754.548 85.2784 752.798 81.7386C751.068 78.1989 750.203 74.0625 750.203 69.3295C750.203 64.5568 751.068 60.3906 752.798 56.831C754.548 53.2713 756.974 50.5071 760.077 48.5384C763.199 46.5696 766.828 45.5852 770.964 45.5852C775.101 45.5852 778.72 46.5696 781.822 48.5384C784.944 50.5071 787.371 53.2713 789.101 56.831C790.851 60.3906 791.726 64.5568 791.726 69.3295C791.726 74.0625 790.851 78.1989 789.101 81.7386C787.371 85.2784 784.944 88.0327 781.822 90.0014C778.72 91.9702 775.101 92.9545 770.964 92.9545ZM770.964 86.6307C774.106 86.6307 776.692 85.8253 778.72 84.2145C780.748 82.6037 782.25 80.4858 783.224 77.8608C784.199 75.2358 784.686 72.392 784.686 69.3295C784.686 66.267 784.199 63.4134 783.224 60.7685C782.25 58.1236 780.748 55.9858 778.72 54.3551C776.692 52.7244 774.106 51.9091 770.964 51.9091C767.822 51.9091 765.237 52.7244 763.209 54.3551C761.18 55.9858 759.679 58.1236 758.704 60.7685C757.73 63.4134 757.243 66.267 757.243 69.3295C757.243 72.392 757.73 75.2358 758.704 77.8608C759.679 80.4858 761.18 82.6037 763.209 84.2145C765.237 85.8253 767.822 86.6307 770.964 86.6307ZM809.512 30.9091V92H802.472V30.9091H809.512ZM864.644 92.9545C860.508 92.9545 856.878 91.9702 853.756 90.0014C850.654 88.0327 848.228 85.2784 846.478 81.7386C844.748 78.1989 843.883 74.0625 843.883 69.3295C843.883 64.5568 844.748 60.3906 846.478 56.831C848.228 53.2713 850.654 50.5071 853.756 48.5384C856.878 46.5696 860.508 45.5852 864.644 45.5852C868.78 45.5852 872.4 46.5696 875.502 48.5384C878.624 50.5071 881.05 53.2713 882.78 56.831C884.53 60.3906 885.405 64.5568 885.405 69.3295C885.405 74.0625 884.53 78.1989 882.78 81.7386C881.05 85.2784 878.624 88.0327 875.502 90.0014C872.4 91.9702 868.78 92.9545 864.644 92.9545ZM864.644 86.6307C867.786 86.6307 870.371 85.8253 872.4 84.2145C874.428 82.6037 875.929 80.4858 876.904 77.8608C877.878 75.2358 878.366 72.392 878.366 69.3295C878.366 66.267 877.878 63.4134 876.904 60.7685C875.929 58.1236 874.428 55.9858 872.4 54.3551C870.371 52.7244 867.786 51.9091 864.644 51.9091C861.502 51.9091 858.917 52.7244 856.888 54.3551C854.86 55.9858 853.358 58.1236 852.384 60.7685C851.41 63.4134 850.922 66.267 850.922 69.3295C850.922 72.392 851.41 75.2358 852.384 77.8608C853.358 80.4858 854.86 82.6037 856.888 84.2145C858.917 85.8253 861.502 86.6307 864.644 86.6307ZM916.555 46.1818V52.1477H891.856V46.1818H916.555ZM899.254 92V39.858C899.254 37.233 899.87 35.0455 901.103 33.2955C902.336 31.5455 903.937 30.233 905.906 29.358C907.874 28.483 909.953 28.0455 912.14 28.0455C913.87 28.0455 915.282 28.1847 916.376 28.4631C917.47 28.7415 918.285 29 918.822 29.2386L916.793 35.3239C916.436 35.2045 915.938 35.0554 915.302 34.8764C914.686 34.6974 913.87 34.608 912.856 34.608C910.529 34.608 908.849 35.1946 907.815 36.3679C906.801 37.5412 906.293 39.2614 906.293 41.5284V92H899.254ZM604.881 154.297H591.815C591.577 152.607 591.09 151.105 590.354 149.793C589.618 148.46 588.673 147.327 587.52 146.392C586.367 145.457 585.034 144.741 583.523 144.244C582.031 143.747 580.411 143.499 578.661 143.499C575.499 143.499 572.744 144.284 570.398 145.855C568.051 147.406 566.232 149.673 564.939 152.656C563.646 155.619 563 159.219 563 163.455C563 167.81 563.646 171.469 564.939 174.432C566.252 177.395 568.081 179.632 570.428 181.143C572.774 182.655 575.489 183.411 578.571 183.411C580.301 183.411 581.902 183.182 583.374 182.724C584.865 182.267 586.188 181.601 587.341 180.726C588.494 179.831 589.449 178.747 590.205 177.474C590.98 176.202 591.517 174.75 591.815 173.119L604.881 173.179C604.543 175.983 603.698 178.688 602.345 181.293C601.013 183.878 599.213 186.195 596.946 188.243C594.699 190.271 592.014 191.882 588.892 193.075C585.79 194.249 582.28 194.835 578.362 194.835C572.914 194.835 568.041 193.602 563.746 191.136C559.47 188.67 556.09 185.101 553.604 180.428C551.138 175.754 549.905 170.097 549.905 163.455C549.905 156.793 551.158 151.125 553.664 146.452C556.169 141.778 559.57 138.219 563.865 135.773C568.161 133.307 572.993 132.074 578.362 132.074C581.902 132.074 585.183 132.571 588.206 133.565C591.249 134.56 593.943 136.011 596.29 137.92C598.637 139.81 600.546 142.126 602.017 144.871C603.509 147.615 604.463 150.757 604.881 154.297ZM634.606 194.895C629.972 194.895 625.965 193.911 622.585 191.942C619.224 189.953 616.629 187.189 614.799 183.649C612.97 180.089 612.055 175.963 612.055 171.27C612.055 166.537 612.97 162.401 614.799 158.861C616.629 155.301 619.224 152.537 622.585 150.568C625.965 148.58 629.972 147.585 634.606 147.585C639.24 147.585 643.237 148.58 646.597 150.568C649.978 152.537 652.583 155.301 654.413 158.861C656.242 162.401 657.157 166.537 657.157 171.27C657.157 175.963 656.242 180.089 654.413 183.649C652.583 187.189 649.978 189.953 646.597 191.942C643.237 193.911 639.24 194.895 634.606 194.895ZM634.666 185.051C636.774 185.051 638.534 184.455 639.945 183.261C641.357 182.048 642.421 180.398 643.137 178.31C643.873 176.222 644.241 173.845 644.241 171.18C644.241 168.516 643.873 166.139 643.137 164.051C642.421 161.963 641.357 160.312 639.945 159.099C638.534 157.886 636.774 157.28 634.666 157.28C632.538 157.28 630.748 157.886 629.296 159.099C627.865 160.312 626.781 161.963 626.045 164.051C625.329 166.139 624.971 168.516 624.971 171.18C624.971 173.845 625.329 176.222 626.045 178.31C626.781 180.398 627.865 182.048 629.296 183.261C630.748 184.455 632.538 185.051 634.666 185.051ZM665.42 194V148.182H677.531V156.266H678.068C679.022 153.581 680.613 151.463 682.84 149.912C685.068 148.361 687.732 147.585 690.835 147.585C693.977 147.585 696.651 148.371 698.859 149.942C701.066 151.493 702.538 153.601 703.274 156.266H703.751C704.686 153.641 706.376 151.543 708.822 149.972C711.288 148.381 714.201 147.585 717.562 147.585C721.838 147.585 725.308 148.947 727.972 151.672C730.657 154.376 731.999 158.214 731.999 163.186V194H719.322V165.692C719.322 163.146 718.646 161.237 717.293 159.964C715.941 158.692 714.251 158.055 712.222 158.055C709.916 158.055 708.116 158.791 706.823 160.263C705.531 161.714 704.884 163.634 704.884 166.02V194H692.565V165.423C692.565 163.176 691.918 161.386 690.626 160.054C689.353 158.722 687.673 158.055 685.585 158.055C684.173 158.055 682.9 158.413 681.766 159.129C680.653 159.825 679.768 160.81 679.112 162.082C678.455 163.335 678.127 164.807 678.127 166.497V194H665.42ZM742.037 211.182V148.182H754.565V155.878H755.132C755.689 154.645 756.494 153.392 757.548 152.119C758.622 150.827 760.014 149.753 761.725 148.898C763.455 148.023 765.602 147.585 768.168 147.585C771.509 147.585 774.591 148.46 777.415 150.21C780.239 151.94 782.496 154.555 784.186 158.055C785.877 161.536 786.722 165.901 786.722 171.151C786.722 176.261 785.896 180.577 784.246 184.097C782.615 187.597 780.388 190.251 777.564 192.061C774.76 193.851 771.618 194.746 768.138 194.746C765.672 194.746 763.574 194.338 761.844 193.523C760.134 192.707 758.732 191.683 757.638 190.45C756.544 189.197 755.709 187.935 755.132 186.662H754.744V211.182H742.037ZM754.476 171.091C754.476 173.815 754.854 176.192 755.61 178.22C756.365 180.249 757.459 181.83 758.891 182.963C760.323 184.077 762.063 184.634 764.111 184.634C766.179 184.634 767.929 184.067 769.361 182.933C770.793 181.78 771.877 180.189 772.612 178.161C773.368 176.112 773.746 173.756 773.746 171.091C773.746 168.446 773.378 166.119 772.642 164.111C771.906 162.102 770.823 160.531 769.391 159.398C767.959 158.264 766.199 157.697 764.111 157.697C762.043 157.697 760.293 158.244 758.861 159.338C757.449 160.432 756.365 161.983 755.61 163.991C754.854 166 754.476 168.366 754.476 171.091ZM824.575 174.491V148.182H837.283V194H825.083V185.678H824.605C823.571 188.362 821.851 190.52 819.445 192.151C817.058 193.781 814.145 194.597 810.705 194.597C807.642 194.597 804.948 193.901 802.621 192.509C800.294 191.116 798.475 189.138 797.162 186.572C795.869 184.007 795.213 180.935 795.193 177.355V148.182H807.901V175.088C807.921 177.793 808.646 179.93 810.078 181.501C811.51 183.072 813.429 183.858 815.835 183.858C817.367 183.858 818.798 183.51 820.131 182.814C821.463 182.098 822.537 181.044 823.352 179.652C824.188 178.26 824.595 176.54 824.575 174.491ZM871.818 148.182V157.727H844.226V148.182H871.818ZM850.49 137.205H863.197V179.92C863.197 181.094 863.376 182.009 863.734 182.665C864.092 183.301 864.589 183.749 865.226 184.007C865.882 184.266 866.638 184.395 867.493 184.395C868.089 184.395 868.686 184.345 869.282 184.246C869.879 184.126 870.336 184.037 870.655 183.977L872.653 193.433C872.017 193.632 871.122 193.861 869.969 194.119C868.815 194.398 867.413 194.567 865.763 194.626C862.7 194.746 860.015 194.338 857.709 193.403C855.422 192.469 853.642 191.017 852.369 189.048C851.096 187.08 850.47 184.594 850.49 181.591V137.205ZM880.096 194V148.182H892.803V194H880.096ZM886.479 142.276C884.59 142.276 882.969 141.649 881.617 140.396C880.285 139.124 879.618 137.602 879.618 135.832C879.618 134.082 880.285 132.581 881.617 131.328C882.969 130.055 884.59 129.419 886.479 129.419C888.368 129.419 889.979 130.055 891.312 131.328C892.664 132.581 893.34 134.082 893.34 135.832C893.34 137.602 892.664 139.124 891.312 140.396C889.979 141.649 888.368 142.276 886.479 142.276ZM915.69 167.511V194H902.982V148.182H915.093V156.266H915.63C916.644 153.601 918.345 151.493 920.731 149.942C923.117 148.371 926.011 147.585 929.411 147.585C932.593 147.585 935.367 148.281 937.734 149.673C940.1 151.065 941.94 153.054 943.252 155.639C944.565 158.205 945.221 161.267 945.221 164.827V194H932.514V167.094C932.534 164.29 931.818 162.102 930.366 160.531C928.914 158.94 926.916 158.145 924.37 158.145C922.66 158.145 921.149 158.513 919.836 159.249C918.543 159.984 917.529 161.058 916.793 162.47C916.078 163.862 915.71 165.543 915.69 167.511ZM975.878 212.136C971.762 212.136 968.232 211.57 965.289 210.436C962.366 209.322 960.039 207.801 958.309 205.872C956.579 203.943 955.455 201.776 954.938 199.369L966.691 197.788C967.049 198.703 967.616 199.558 968.391 200.354C969.167 201.149 970.191 201.786 971.464 202.263C972.756 202.76 974.327 203.009 976.177 203.009C978.941 203.009 981.218 202.332 983.008 200.98C984.817 199.648 985.722 197.411 985.722 194.268V185.886H985.185C984.628 187.159 983.793 188.362 982.679 189.496C981.566 190.629 980.134 191.554 978.384 192.27C976.634 192.986 974.546 193.344 972.12 193.344C968.679 193.344 965.547 192.548 962.724 190.957C959.92 189.347 957.682 186.891 956.012 183.589C954.361 180.268 953.536 176.072 953.536 171.001C953.536 165.811 954.381 161.476 956.072 157.996C957.762 154.516 960.009 151.911 962.813 150.18C965.637 148.45 968.729 147.585 972.09 147.585C974.655 147.585 976.803 148.023 978.533 148.898C980.263 149.753 981.655 150.827 982.709 152.119C983.783 153.392 984.608 154.645 985.185 155.878H985.662V148.182H998.28V194.447C998.28 198.345 997.326 201.607 995.417 204.232C993.508 206.857 990.863 208.825 987.482 210.138C984.121 211.47 980.253 212.136 975.878 212.136ZM976.147 183.798C978.195 183.798 979.925 183.291 981.337 182.277C982.769 181.243 983.863 179.771 984.618 177.862C985.394 175.933 985.782 173.626 985.782 170.942C985.782 168.257 985.404 165.93 984.648 163.962C983.893 161.973 982.799 160.432 981.367 159.338C979.935 158.244 978.195 157.697 976.147 157.697C974.059 157.697 972.299 158.264 970.867 159.398C969.435 160.511 968.351 162.062 967.616 164.051C966.88 166.04 966.512 168.337 966.512 170.942C966.512 173.587 966.88 175.874 967.616 177.803C968.371 179.712 969.455 181.193 970.867 182.247C972.299 183.281 974.059 183.798 976.147 183.798Z" fill="#1F4899"/>
<defs>
<linearGradient id="paint0_linear_357_2318" x1="10.1173" y1="168.645" x2="535.788" y2="168.645" gradientUnits="userSpaceOnUse">
<stop stop-color="#69C5F0"/>
<stop offset="0.05" stop-color="#69C5F0"/>
<stop offset="0.3816" stop-color="#3F88D0"/>
<stop offset="0.5" stop-color="#3F88D0"/>
<stop offset="0.7316" stop-color="#2C61B5"/>
<stop offset="0.95" stop-color="#2C61B5"/>
<stop offset="1" stop-color="#2C61B5"/>
</linearGradient>
</defs>
</svg>
