<?xml version="1.0" encoding="UTF-8" standalone="no"?>
<svg
   xmlns:dc="http://purl.org/dc/elements/1.1/"
   xmlns:cc="http://creativecommons.org/ns#"
   xmlns:rdf="http://www.w3.org/1999/02/22-rdf-syntax-ns#"
   xmlns:svg="http://www.w3.org/2000/svg"
   xmlns="http://www.w3.org/2000/svg"
   viewBox="0 0 1440 1440"
   height="1440"
   width="1440"
   xml:space="preserve"
   id="svg2"
   version="1.1"><metadata
     id="metadata8"><rdf:RDF><cc:Work
         rdf:about=""><dc:format>image/svg+xml</dc:format><dc:type
           rdf:resource="http://purl.org/dc/dcmitype/StillImage" /></cc:Work></rdf:RDF></metadata><defs
     id="defs6"><linearGradient
       id="linearGradient30"
       spreadMethod="pad"
       gradientTransform="matrix(206.82054,0,0,-206.82054,252.356,540)"
       gradientUnits="userSpaceOnUse"
       y2="0"
       x2="1"
       y1="0"
       x1="0"><stop
         id="stop24"
         offset="0"
         style="stop-opacity:1;stop-color:#2af598" /><stop
         id="stop26"
         offset="0.5145727"
         style="stop-opacity:1;stop-color:#009efd" /><stop
         id="stop28"
         offset="1"
         style="stop-opacity:1;stop-color:#009efd" /></linearGradient><linearGradient
       id="linearGradient52"
       spreadMethod="pad"
       gradientTransform="matrix(206.82054,0,0,-206.82054,252.356,540)"
       gradientUnits="userSpaceOnUse"
       y2="0"
       x2="1"
       y1="0"
       x1="0"><stop
         id="stop46"
         offset="0"
         style="stop-opacity:1;stop-color:#2af598" /><stop
         id="stop48"
         offset="0.5145727"
         style="stop-opacity:1;stop-color:#009efd" /><stop
         id="stop50"
         offset="1"
         style="stop-opacity:1;stop-color:#009efd" /></linearGradient><linearGradient
       id="linearGradient74"
       spreadMethod="pad"
       gradientTransform="matrix(206.82054,0,0,-206.82054,252.356,540)"
       gradientUnits="userSpaceOnUse"
       y2="0"
       x2="1"
       y1="0"
       x1="0"><stop
         id="stop68"
         offset="0"
         style="stop-opacity:1;stop-color:#2af598" /><stop
         id="stop70"
         offset="0.5145727"
         style="stop-opacity:1;stop-color:#009efd" /><stop
         id="stop72"
         offset="1"
         style="stop-opacity:1;stop-color:#009efd" /></linearGradient><linearGradient
       id="linearGradient96"
       spreadMethod="pad"
       gradientTransform="matrix(206.82054,0,0,-206.82054,252.356,563.48694)"
       gradientUnits="userSpaceOnUse"
       y2="0"
       x2="1"
       y1="0"
       x1="0"><stop
         id="stop90"
         offset="0"
         style="stop-opacity:1;stop-color:#2af598" /><stop
         id="stop92"
         offset="0.5145727"
         style="stop-opacity:1;stop-color:#009efd" /><stop
         id="stop94"
         offset="1"
         style="stop-opacity:1;stop-color:#009efd" /></linearGradient><clipPath
       id="clipPath106"
       clipPathUnits="userSpaceOnUse"><path
         id="path104"
         d="M 0,1080 H 1080 V 0 H 0 Z" /></clipPath></defs><g
     transform="matrix(1.3333333,0,0,-1.3333333,0,1440)"
     id="g10"><g
       id="g12"><g
         id="g14"><g
           id="g20"><g
             id="g22"><path
               id="path32"
               style="fill:url(#linearGradient30);stroke:none"
               d="m 320.327,571.694 c -14.659,0 -26.582,-11.922 -26.582,-26.581 v 0 -10.225 c 0,-5.281 1.59,-10.179 4.256,-14.321 v 0 h -18.576 c -2.257,0 -4.094,1.838 -4.094,4.095 v 0 15.536 c 5.985,2.434 10.225,8.293 10.225,15.14 v 0 c 0,9.018 -7.339,16.356 -16.356,16.356 v 0 c -9.017,0 -16.358,-7.338 -16.358,-16.356 v 0 c 0,-6.847 4.242,-12.706 10.226,-15.14 v 0 -15.536 c 0,-9.018 7.34,-16.357 16.357,-16.357 v 0 h 40.902 10.225 c 3.386,0 6.132,2.746 6.132,6.131 v 0 c 0,3.385 -2.746,6.131 -6.132,6.131 v 0 h -10.225 c -7.889,0 -14.32,6.431 -14.32,14.321 v 0 10.225 c 0,7.888 6.431,14.319 14.32,14.319 v 0 h 10.225 c 3.386,0 6.132,2.746 6.132,6.132 v 0 c 0,3.384 -2.746,6.13 -6.132,6.13 v 0 z m -55.221,-16.356 c 0,2.257 1.837,4.094 4.094,4.094 v 0 c 2.256,0 4.094,-1.837 4.094,-4.094 v 0 c 0,-2.257 -1.838,-4.094 -4.094,-4.094 v 0 c -2.257,0 -4.094,1.837 -4.094,4.094" /></g></g></g></g><g
       id="g34"><g
         id="g36"><g
           id="g42"><g
             id="g44"><path
               id="path54"
               style="fill:url(#linearGradient52);stroke:none"
               d="m 339.759,565.564 v -40.902 c 0,-9.034 7.323,-16.357 16.357,-16.357 v 0 h 35.799 c 3.77,0 7.262,1.06 10.344,2.772 v 0 c 1.25,-1.85 3.364,-3.068 5.859,-2.708 v 0 c 3.073,0.44 5.266,3.233 5.266,6.339 v 0 30.133 c 0,3.105 -2.193,5.9 -5.266,6.341 v 0 c -2.495,0.358 -4.609,-0.86 -5.859,-2.71 v 0 c -0.684,0.38 -1.391,0.726 -2.116,1.036 v 0 c -1.231,0.524 -2.168,1.557 -2.684,2.79 v 0 c -0.907,2.169 -3.046,3.695 -5.544,3.695 v 0 c -2.498,0 -4.636,-1.524 -5.543,-3.691 v 0 c -0.503,-1.2 -1.43,-2.195 -2.634,-2.691 v 0 c -7.794,-3.22 -13.293,-10.889 -13.293,-19.837 v 0 c 0,-3.308 0.814,-6.405 2.155,-9.207 v 0 h -16.484 c -2.261,0 -4.095,1.834 -4.095,4.095 v 0 40.695 c 0,3.119 -2.24,5.896 -5.333,6.287 v 0 c -0.269,0.034 -0.536,0.051 -0.799,0.051 v 0 c -3.385,0 -6.13,-2.746 -6.13,-6.131 m 42.949,-35.79 c 0,5.073 4.134,9.207 9.207,9.207 v 0 c 5.072,0 9.207,-4.134 9.207,-9.207 v 0 c 0,-5.072 -4.135,-9.207 -9.207,-9.207 v 0 c -5.073,0 -9.207,4.135 -9.207,9.207" /></g></g></g></g><g
       id="g56"><g
         id="g58"><g
           id="g64"><g
             id="g66"><path
               id="path76"
               style="fill:url(#linearGradient74);stroke:none"
               d="m 416.45,565.564 v -51.128 c 0,-3.385 2.746,-6.131 6.131,-6.131 v 0 c 2.116,0 3.891,1.141 4.994,2.773 v 0 c 3.081,-1.712 6.574,-2.773 10.344,-2.773 v 0 c 11.843,0 21.47,9.627 21.47,21.469 v 0 c 0,11.843 -9.627,21.47 -21.47,21.47 v 0 c -3.308,0 -6.406,-0.814 -9.207,-2.155 v 0 16.475 c 0,3.384 -2.746,6.13 -6.131,6.13 v 0 c -3.385,0 -6.131,-2.746 -6.131,-6.13 m 12.262,-35.79 c 0,5.073 4.134,9.207 9.207,9.207 v 0 c 5.073,0 9.207,-4.134 9.207,-9.207 v 0 c 0,-5.072 -4.134,-9.207 -9.207,-9.207 v 0 c -5.073,0 -9.207,4.135 -9.207,9.207" /></g></g></g></g><g
       id="g78"><g
         id="g80"><g
           id="g86"><g
             id="g88"><path
               id="path98"
               style="fill:url(#linearGradient96);stroke:none"
               d="m 387.737,563.486 c 0,-2.26 1.832,-4.094 4.094,-4.094 v 0 c 2.261,0 4.094,1.834 4.094,4.094 v 0 c 0,2.262 -1.833,4.095 -4.094,4.095 v 0 c -2.262,0 -4.094,-1.833 -4.094,-4.095" /></g></g></g></g><g
       id="g100"><g
         clip-path="url(#clipPath106)"
         id="g102"><g
           transform="translate(481.8818,526.2393)"
           id="g108"><path
             id="path110"
             style="fill:#757f87;fill-opacity:1;fill-rule:nonzero;stroke:none"
             d="m 0,0 h 2.893 v -14.705 h 8.728 v -2.772 H 0 Z" /></g><g
           transform="translate(503.7495,522.6934)"
           id="g112"><path
             id="path114"
             style="fill:#757f87;fill-opacity:1;fill-rule:nonzero;stroke:none"
             d="M 0,0 -2.846,-6.99 H 2.87 Z M 8.705,-13.931 H 5.622 l -1.684,4.22 h -7.851 l -1.708,-4.22 h -2.988 l 7.305,17.602 h 2.703 z" /></g><g
           transform="translate(525.3594,512.0957)"
           id="g116"><path
             id="path118"
             style="fill:#757f87;fill-opacity:1;fill-rule:nonzero;stroke:none"
             d="m 0,0 c 0.567,0.407 0.851,1.012 0.851,1.81 0,0.749 -0.28,1.332 -0.84,1.748 -0.558,0.416 -1.414,0.625 -2.565,0.625 h -4.612 v -4.795 h 4.825 c 0.993,0 1.773,0.204 2.341,0.612 m -0.924,7.344 c 0.566,0.392 0.85,0.999 0.85,1.819 0,0.72 -0.248,1.276 -0.744,1.67 -0.497,0.393 -1.218,0.589 -2.163,0.589 H -7.166 V 6.753 h 3.973 c 0.944,0 1.701,0.197 2.269,0.591 m 2.277,5.599 C 2.33,12.143 2.82,11.051 2.82,9.666 2.82,9.133 2.754,8.657 2.62,8.241 2.486,7.823 2.314,7.461 2.102,7.152 1.891,6.844 1.639,6.572 1.35,6.34 1.059,6.106 0.765,5.906 0.467,5.74 0.954,5.557 1.398,5.345 1.8,5.104 2.2,4.862 2.546,4.576 2.837,4.244 3.127,3.911 3.351,3.517 3.509,3.06 3.666,2.603 3.746,2.075 3.746,1.478 3.746,0.696 3.599,0.007 3.308,-0.592 3.015,-1.189 2.601,-1.692 2.064,-2.1 1.528,-2.507 0.88,-2.813 0.122,-3.021 -0.635,-3.229 -1.472,-3.333 -2.388,-3.333 h -7.671 v 17.477 h 7.433 c 1.673,0 3,-0.401 3.979,-1.201" /></g><g
           transform="translate(545.5771,519.8848)"
           id="g120"><path
             id="path122"
             style="fill:#757f87;fill-opacity:1;fill-rule:nonzero;stroke:none"
             d="M 0,0 C -0.276,0.758 -0.665,1.419 -1.163,1.985 -1.661,2.551 -2.258,3.001 -2.954,3.334 -3.65,3.666 -4.408,3.832 -5.231,3.832 -6.052,3.832 -6.808,3.671 -7.496,3.346 -8.184,3.021 -8.772,2.58 -9.263,2.023 -9.752,1.465 -10.137,0.808 -10.412,0.05 c -0.277,-0.757 -0.416,-1.56 -0.416,-2.409 0,-0.849 0.139,-1.652 0.416,-2.41 0.275,-0.756 0.663,-1.418 1.162,-1.984 0.497,-0.565 1.094,-1.016 1.791,-1.349 0.695,-0.333 1.454,-0.499 2.276,-0.499 0.822,0 1.577,0.163 2.265,0.487 0.688,0.325 1.277,0.765 1.767,1.324 0.49,0.558 0.875,1.214 1.151,1.972 0.275,0.756 0.414,1.56 0.414,2.409 C 0.414,-1.56 0.275,-0.758 0,0 M 2.834,-5.854 C 2.407,-6.953 1.807,-7.914 1.03,-8.738 c -0.773,-0.824 -1.691,-1.477 -2.75,-1.959 -1.059,-0.483 -2.23,-0.725 -3.511,-0.725 -1.279,0 -2.451,0.237 -3.51,0.712 -1.06,0.474 -1.968,1.119 -2.727,1.935 -0.76,0.815 -1.353,1.772 -1.78,2.871 -0.426,1.098 -0.639,2.263 -0.639,3.495 0,1.231 0.213,2.396 0.639,3.495 0.427,1.099 1.028,2.06 1.804,2.884 0.774,0.824 1.692,1.477 2.751,1.96 1.058,0.483 2.23,0.723 3.51,0.723 1.282,0 2.451,-0.236 3.51,-0.711 1.06,-0.473 1.969,-1.119 2.729,-1.934 0.758,-0.816 1.351,-1.773 1.778,-2.871 0.427,-1.099 0.64,-2.264 0.64,-3.496 0,-1.232 -0.213,-2.397 -0.64,-3.495" /></g><g
           transform="translate(562.2822,522.7285)"
           id="g124"><path
             id="path126"
             style="fill:#757f87;fill-opacity:1;fill-rule:nonzero;stroke:none"
             d="m 0,0 c -0.602,0.493 -1.451,0.739 -2.546,0.739 h -4.258 v -5.891 h 4.283 c 1.046,0 1.878,0.267 2.498,0.801 0.618,0.536 0.927,1.254 0.927,2.157 C 0.904,-1.225 0.603,-0.493 0,0 m 0.953,-13.966 -4.093,6.092 h -3.664 v -6.092 H -9.697 V 3.511 h 7.4 C -1.35,3.511 -0.49,3.382 0.275,3.123 1.044,2.865 1.691,2.499 2.222,2.024 2.751,1.551 3.158,0.968 3.442,0.277 3.728,-0.413 3.869,-1.183 3.869,-2.032 3.869,-2.765 3.771,-3.418 3.572,-3.991 3.375,-4.566 3.104,-5.073 2.755,-5.515 2.407,-5.956 1.991,-6.33 1.51,-6.639 1.026,-6.946 0.493,-7.184 -0.092,-7.35 l 4.484,-6.616 z" /></g><g
           transform="translate(576.9189,522.6934)"
           id="g128"><path
             id="path130"
             style="fill:#757f87;fill-opacity:1;fill-rule:nonzero;stroke:none"
             d="M 0,0 -2.846,-6.99 H 2.87 Z M 8.705,-13.931 H 5.622 l -1.684,4.22 h -7.851 l -1.707,-4.22 h -2.989 l 7.305,17.602 h 2.703 z" /></g><g
           transform="translate(593.3555,508.7627)"
           id="g132"><path
             id="path134"
             style="fill:#757f87;fill-opacity:1;fill-rule:nonzero;stroke:none"
             d="m 0,0 h -2.94 v 14.63 h -5.266 v 2.847 H 5.266 V 14.63 H 0 Z" /></g><g
           transform="translate(613.957,519.8848)"
           id="g136"><path
             id="path138"
             style="fill:#757f87;fill-opacity:1;fill-rule:nonzero;stroke:none"
             d="M 0,0 C -0.277,0.758 -0.665,1.419 -1.164,1.985 -1.661,2.551 -2.259,3.001 -2.954,3.334 -3.65,3.666 -4.409,3.832 -5.231,3.832 -6.053,3.832 -6.808,3.671 -7.496,3.346 -8.185,3.021 -8.772,2.58 -9.264,2.023 -9.753,1.465 -10.138,0.808 -10.413,0.05 c -0.276,-0.757 -0.416,-1.56 -0.416,-2.409 0,-0.849 0.14,-1.652 0.416,-2.41 0.275,-0.756 0.663,-1.418 1.162,-1.984 0.498,-0.565 1.095,-1.016 1.791,-1.349 0.696,-0.333 1.454,-0.499 2.277,-0.499 0.821,0 1.577,0.163 2.264,0.487 0.689,0.325 1.278,0.765 1.768,1.324 0.489,0.558 0.874,1.214 1.151,1.972 0.275,0.756 0.414,1.56 0.414,2.409 C 0.414,-1.56 0.275,-0.758 0,0 M 2.833,-5.854 C 2.406,-6.953 1.806,-7.914 1.03,-8.738 c -0.774,-0.824 -1.692,-1.477 -2.751,-1.959 -1.058,-0.483 -2.23,-0.725 -3.51,-0.725 -1.28,0 -2.451,0.237 -3.51,0.712 -1.06,0.474 -1.969,1.119 -2.728,1.935 -0.76,0.815 -1.352,1.772 -1.779,2.871 -0.427,1.098 -0.64,2.263 -0.64,3.495 0,1.231 0.213,2.396 0.64,3.495 0.427,1.099 1.027,2.06 1.803,2.884 0.774,0.824 1.692,1.477 2.751,1.96 1.059,0.483 2.23,0.723 3.511,0.723 1.281,0 2.451,-0.236 3.509,-0.711 1.061,-0.473 1.969,-1.119 2.73,-1.934 0.757,-0.816 1.35,-1.773 1.777,-2.871 0.428,-1.099 0.64,-2.264 0.64,-3.496 0,-1.232 -0.212,-2.397 -0.64,-3.495" /></g><g
           transform="translate(630.6621,522.7285)"
           id="g140"><path
             id="path142"
             style="fill:#757f87;fill-opacity:1;fill-rule:nonzero;stroke:none"
             d="m 0,0 c -0.602,0.493 -1.451,0.739 -2.546,0.739 h -4.259 v -5.891 h 4.284 c 1.046,0 1.878,0.267 2.498,0.801 0.618,0.536 0.927,1.254 0.927,2.157 C 0.904,-1.225 0.603,-0.493 0,0 m 0.952,-13.966 -4.093,6.092 h -3.664 v -6.092 H -9.697 V 3.511 h 7.4 c 0.947,0 1.806,-0.129 2.572,-0.388 C 1.043,2.865 1.69,2.499 2.221,2.024 2.751,1.551 3.157,0.968 3.442,0.277 3.727,-0.413 3.869,-1.183 3.869,-2.032 3.869,-2.765 3.771,-3.418 3.572,-3.991 3.375,-4.566 3.103,-5.073 2.754,-5.515 2.407,-5.956 1.991,-6.33 1.509,-6.639 1.026,-6.946 0.493,-7.184 -0.092,-7.35 l 4.484,-6.616 z" /></g><g
           transform="translate(645.3467,508.7627)"
           id="g144"><path
             id="path146"
             style="fill:#757f87;fill-opacity:1;fill-rule:nonzero;stroke:none"
             d="m 0,0 h -2.941 v 6.891 l -6.593,10.586 h 3.438 l 4.65,-7.741 4.696,7.741 H 6.594 L 0,6.966 Z" /></g><path
           id="path148"
           style="fill:#475056;fill-opacity:1;fill-rule:nonzero;stroke:none"
           d="m 481.882,570.896 h 5.131 v -32.654 h -5.131 z" /><g
           transform="translate(495.3154,561.8936)"
           id="g150"><path
             id="path152"
             style="fill:#475056;fill-opacity:1;fill-rule:nonzero;stroke:none"
             d="M 0,0 V -23.651 H -4.618 V 9.003 H 1.82 L 7.091,-10.542 V 9.003 h 4.571 v -32.654 h -5.27 z" /></g><g
           transform="translate(509.1699,570.8965)"
           id="g154"><path
             id="path156"
             style="fill:#475056;fill-opacity:1;fill-rule:nonzero;stroke:none"
             d="M 0,0 H 15.859 V -4.665 H 10.495 V -32.654 H 5.364 v 27.989 l -5.364,0 z" /></g><g
           transform="translate(532.3984,557.1343)"
           id="g158"><path
             id="path160"
             style="fill:#475056;fill-opacity:1;fill-rule:nonzero;stroke:none"
             d="M 0,0 H 7.043 V -4.664 H 0 v -9.563 h 8.864 v -4.665 H -5.131 V 13.762 H 8.864 V 9.097 L 0,9.097 Z" /></g><g
           transform="translate(549.5654,566.2314)"
           id="g162"><path
             id="path164"
             style="fill:#475056;fill-opacity:1;fill-rule:nonzero;stroke:none"
             d="m 0,0 v -10.029 h 2.006 c 1.913,0 3.078,0.84 3.078,3.451 v 3.219 C 5.084,-1.026 4.291,0 2.473,0 Z m 5.599,-27.989 c -0.281,0.84 -0.468,1.353 -0.468,4.011 v 5.132 c 0,3.032 -1.027,4.152 -3.358,4.152 H 0 V -27.989 H -5.132 V 4.665 h 7.745 c 5.318,0 7.604,-2.472 7.604,-7.511 v -2.565 c 0,-3.359 -1.073,-5.552 -3.36,-6.625 2.567,-1.072 3.405,-3.545 3.405,-6.949 v -5.039 c 0,-1.586 0.047,-2.751 0.56,-3.965 z" /></g><g
           transform="translate(568.085,548.5986)"
           id="g166"><path
             id="path168"
             style="fill:#475056;fill-opacity:1;fill-rule:nonzero;stroke:none"
             d="M 0,0 H 4.944 L 2.473,16.513 Z M 11.709,-10.356 H 6.53 l -0.886,5.924 h -6.298 l -0.885,-5.924 h -4.712 l 5.225,32.654 h 7.509 z" /></g><g
           transform="translate(597.0508,550.4175)"
           id="g170"><path
             id="path172"
             style="fill:#475056;fill-opacity:1;fill-rule:nonzero;stroke:none"
             d="m 0,0 v -4.338 c 0,-5.225 -2.611,-8.21 -7.65,-8.21 -5.038,0 -7.649,2.985 -7.649,8.21 v 16.981 c 0,5.223 2.611,8.209 7.649,8.209 5.039,0 7.65,-2.986 7.65,-8.209 V 9.469 h -4.851 v 3.499 c 0,2.333 -1.026,3.22 -2.659,3.22 -1.633,0 -2.658,-0.887 -2.658,-3.22 V -4.665 c 0,-2.332 1.025,-3.171 2.658,-3.171 1.633,0 2.659,0.839 2.659,3.171 V 0 Z" /></g><g
           transform="translate(598.6855,570.8965)"
           id="g174"><path
             id="path176"
             style="fill:#475056;fill-opacity:1;fill-rule:nonzero;stroke:none"
             d="M 0,0 H 15.859 V -4.665 H 10.495 V -32.654 H 5.364 v 27.989 l -5.364,0 z" /></g><path
           id="path178"
           style="fill:#475056;fill-opacity:1;fill-rule:nonzero;stroke:none"
           d="m 616.782,570.896 h 5.132 v -32.654 h -5.132 z" /><g
           transform="translate(633.3896,544.2607)"
           id="g180"><path
             id="path182"
             style="fill:#475056;fill-opacity:1;fill-rule:nonzero;stroke:none"
             d="M 0,0 3.918,26.636 H 8.63 L 3.591,-6.019 h -7.65 l -5.039,32.655 h 5.179 z" /></g><g
           transform="translate(649.5293,557.1343)"
           id="g184"><path
             id="path186"
             style="fill:#475056;fill-opacity:1;fill-rule:nonzero;stroke:none"
             d="M 0,0 H 7.043 V -4.664 H 0 v -9.563 h 8.864 v -4.665 H -5.132 V 13.762 H 8.864 V 9.097 L 0,9.097 Z" /></g><g
           transform="translate(683.6738,550.4175)"
           id="g188"><path
             id="path190"
             style="fill:#475056;fill-opacity:1;fill-rule:nonzero;stroke:none"
             d="m 0,0 v -4.338 c 0,-5.225 -2.612,-8.21 -7.651,-8.21 -5.037,0 -7.649,2.985 -7.649,8.21 v 16.981 c 0,5.223 2.612,8.209 7.649,8.209 C -2.612,20.852 0,17.866 0,12.643 V 9.469 h -4.852 v 3.499 c 0,2.333 -1.026,3.22 -2.659,3.22 -1.632,0 -2.658,-0.887 -2.658,-3.22 V -4.665 c 0,-2.332 1.026,-3.171 2.658,-3.171 1.633,0 2.659,0.839 2.659,3.171 l 0,4.665 z" /></g><g
           transform="translate(691.5117,545.7524)"
           id="g192"><path
             id="path194"
             style="fill:#475056;fill-opacity:1;fill-rule:nonzero;stroke:none"
             d="m 0,0 c 0,-2.332 1.025,-3.218 2.658,-3.218 1.633,0 2.659,0.886 2.659,3.218 v 17.633 c 0,2.333 -1.026,3.22 -2.659,3.22 C 1.025,20.853 0,19.966 0,17.633 Z m -5.131,17.308 c 0,5.223 2.752,8.209 7.789,8.209 5.037,0 7.79,-2.986 7.79,-8.209 V 0.327 c 0,-5.225 -2.753,-8.21 -7.79,-8.21 -5.037,0 -7.789,2.985 -7.789,8.21 z" /></g><g
           transform="translate(716.1396,547.7119)"
           id="g196"><path
             id="path198"
             style="fill:#475056;fill-opacity:1;fill-rule:nonzero;stroke:none"
             d="m 0,0 3.498,23.185 h 7.138 V -9.47 H 5.785 V 13.948 L 2.239,-9.47 h -4.85 L -6.437,13.622 V -9.47 h -4.479 v 32.655 h 7.138 z" /></g><g
           transform="translate(735.6387,566.2314)"
           id="g200"><path
             id="path202"
             style="fill:#475056;fill-opacity:1;fill-rule:nonzero;stroke:none"
             d="m 0,0 v -11.055 h 2.425 c 1.633,0 2.519,0.746 2.519,3.078 v 4.898 C 4.944,-0.746 4.058,0 2.425,0 Z M 10.076,-3.406 V -7.65 c 0,-5.225 -2.519,-8.07 -7.651,-8.07 H 0 V -27.989 H -5.132 V 4.665 h 7.557 c 5.132,0 7.651,-2.846 7.651,-8.071" /></g><g
           transform="translate(753.2246,570.8965)"
           id="g204"><path
             id="path206"
             style="fill:#475056;fill-opacity:1;fill-rule:nonzero;stroke:none"
             d="m 0,0 v -25.191 c 0,-2.331 1.025,-3.171 2.658,-3.171 1.633,0 2.658,0.84 2.658,3.171 V 0 h 4.854 v -24.864 c 0,-5.223 -2.613,-8.209 -7.651,-8.209 -5.039,0 -7.651,2.986 -7.651,8.209 V 0 Z" /></g><g
           transform="translate(765.3994,570.8965)"
           id="g208"><path
             id="path210"
             style="fill:#475056;fill-opacity:1;fill-rule:nonzero;stroke:none"
             d="M 0,0 H 15.859 V -4.665 H 10.495 V -32.654 H 5.364 v 27.989 l -5.364,0 z" /></g><path
           id="path212"
           style="fill:#475056;fill-opacity:1;fill-rule:nonzero;stroke:none"
           d="m 783.496,570.896 h 5.132 v -32.654 h -5.132 z" /><g
           transform="translate(796.9307,561.8936)"
           id="g214"><path
             id="path216"
             style="fill:#475056;fill-opacity:1;fill-rule:nonzero;stroke:none"
             d="M 0,0 V -23.651 H -4.618 V 9.003 H 1.82 L 7.09,-10.542 V 9.003 h 4.571 V -23.651 H 6.392 Z" /></g><g
           transform="translate(819.9736,556.4355)"
           id="g218"><path
             id="path220"
             style="fill:#475056;fill-opacity:1;fill-rule:nonzero;stroke:none"
             d="m 0,0 h 7.184 v -10.356 c 0,-5.225 -2.613,-8.21 -7.651,-8.21 -5.038,0 -7.649,2.985 -7.649,8.21 V 6.625 c 0,5.223 2.611,8.208 7.649,8.208 5.038,0 7.651,-2.985 7.651,-8.208 V 3.451 H 2.332 V 6.95 c 0,2.333 -1.025,3.22 -2.658,3.22 -1.633,0 -2.659,-0.887 -2.659,-3.22 v -17.633 c 0,-2.332 1.026,-3.171 2.659,-3.171 1.633,0 2.658,0.839 2.658,3.171 v 6.018 H 0 Z" /></g></g></g></g></svg>