<svg viewBox="0 0 594 180" fill="none" xmlns="http://www.w3.org/2000/svg">
<path d="M193.871 34.8075H223.262C233.001 34.8075 240.873 26.9999 240.873 17.4038C240.873 7.80756 232.972 0 223.262 0H193.871C151.752 0 117.506 33.8422 117.506 75.4636V104.508C117.506 119.498 122.074 133.41 129.745 145.164H76.3646C69.8716 145.164 64.614 139.94 64.614 133.552V89.4319C81.7946 82.5329 94.0049 65.8957 94.0049 46.4478C94.0049 20.839 72.917 0 47.0025 0C21.0879 0 0 20.839 0 46.4478C0 65.8957 12.1816 82.5329 29.3909 89.4319V133.552C29.3909 159.16 50.4788 180 76.3934 180H223.29C233.03 180 240.902 172.192 240.902 162.596C240.902 153 233.001 145.192 223.29 145.192H193.899C171.231 145.192 152.758 126.937 152.758 104.536V75.492C152.758 53.0914 171.231 34.8359 193.899 34.8359L193.871 34.8075ZM46.9737 58.0598C40.4807 58.0598 35.2231 52.8358 35.2231 46.4478C35.2231 40.0598 40.5095 34.8359 46.9737 34.8359C53.438 34.8359 58.7243 40.0598 58.7243 46.4478C58.7243 52.8358 53.438 58.0598 46.9737 58.0598Z" fill="url(#paint0_linear_357_2303)"/>
<path d="M446.121 58.2304C438.939 57.2084 432.876 60.6721 429.285 65.9245C427.303 64.8456 425.292 63.8518 423.194 62.9717C419.661 61.4954 416.96 58.5428 415.495 55.0507C412.88 48.8898 406.732 44.5743 399.578 44.5743C392.425 44.5743 386.248 48.8898 383.662 55.0507C382.225 58.4576 379.553 61.2683 376.106 62.6879C353.725 71.8298 337.924 93.6057 337.924 119.016C337.924 128.413 340.251 137.214 344.1 145.164H296.753C290.26 145.164 285.003 139.968 285.003 133.552V18.0003C285.003 9.14229 278.567 1.24946 269.69 0.142206C258.944 -1.19218 249.78 7.04129 249.78 17.404V133.524C249.78 159.161 270.81 179.971 296.782 179.971H399.636C410.467 179.971 420.494 176.962 429.343 172.107C432.934 177.359 438.996 180.823 446.179 179.801C454.999 178.552 461.319 170.602 461.319 161.801V76.2587C461.319 67.4575 455.027 59.5081 446.179 58.2589L446.121 58.2304ZM399.578 145.136C385.012 145.136 373.118 133.41 373.118 118.987C373.118 104.565 384.983 92.8392 399.578 92.8392C414.173 92.8392 426.039 104.565 426.039 118.987C426.039 133.41 414.173 145.136 399.578 145.136Z" fill="url(#paint1_linear_357_2303)"/>
<path d="M531.736 58.0598C522.227 58.0598 513.32 60.3594 505.276 64.1638V17.4038C505.276 7.77917 497.375 0 487.665 0C477.954 0 470.053 7.80756 470.053 17.4038V162.567C470.053 172.192 477.954 179.971 487.665 179.971C493.755 179.971 498.841 176.735 502.001 172.107C510.85 176.962 520.877 179.971 531.708 179.971C565.724 179.971 593.391 152.63 593.391 119.015C593.391 85.4004 565.724 58.0598 531.708 58.0598H531.736ZM531.736 145.164C517.17 145.164 505.276 133.438 505.276 119.015C505.276 104.593 517.142 92.8673 531.736 92.8673C546.331 92.8673 558.197 104.593 558.197 119.015C558.197 133.438 546.331 145.164 531.736 145.164Z" fill="url(#paint2_linear_357_2303)"/>
<path d="M399.32 34.8938C405.81 34.8938 411.071 29.6951 411.071 23.282C411.071 16.8688 405.81 11.6699 399.32 11.6699C392.831 11.6699 387.57 16.8688 387.57 23.282C387.57 29.6951 392.831 34.8938 399.32 34.8938Z" fill="url(#paint3_linear_357_2303)"/>
<defs>
<linearGradient id="paint0_linear_357_2303" x1="-1.40778" y1="89.9714" x2="592.788" y2="89.9714" gradientUnits="userSpaceOnUse">
<stop stop-color="#2AF598"/>
<stop offset="0.2" stop-color="#1BD6BA"/>
<stop offset="0.4" stop-color="#0FBED7"/>
<stop offset="0.61" stop-color="#06ACEC"/>
<stop offset="0.81" stop-color="#01A1F8"/>
<stop offset="1" stop-color="#009EFD"/>
</linearGradient>
<linearGradient id="paint1_linear_357_2303" x1="-3.47279e-05" y1="89.9717" x2="592.788" y2="89.9717" gradientUnits="userSpaceOnUse">
<stop stop-color="#2AF598"/>
<stop offset="0.2" stop-color="#1BD6BA"/>
<stop offset="0.4" stop-color="#0FBED7"/>
<stop offset="0.61" stop-color="#06ACEC"/>
<stop offset="0.81" stop-color="#01A1F8"/>
<stop offset="1" stop-color="#009EFD"/>
</linearGradient>
<linearGradient id="paint2_linear_357_2303" x1="-0.000230496" y1="-1443.15" x2="592.788" y2="-1443.15" gradientUnits="userSpaceOnUse">
<stop stop-color="#2AF598"/>
<stop offset="0.2" stop-color="#1BD6BA"/>
<stop offset="0.4" stop-color="#0FBED7"/>
<stop offset="0.61" stop-color="#06ACEC"/>
<stop offset="0.81" stop-color="#01A1F8"/>
<stop offset="1" stop-color="#009EFD"/>
</linearGradient>
<linearGradient id="paint3_linear_357_2303" x1="0.000182218" y1="23.2819" x2="592.789" y2="23.2819" gradientUnits="userSpaceOnUse">
<stop stop-color="#2AF598"/>
<stop offset="0.2" stop-color="#1BD6BA"/>
<stop offset="0.4" stop-color="#0FBED7"/>
<stop offset="0.61" stop-color="#06ACEC"/>
<stop offset="0.81" stop-color="#01A1F8"/>
<stop offset="1" stop-color="#009EFD"/>
</linearGradient>
</defs>
</svg>
