<svg viewBox="0 0 272 100" fill="none" xmlns="http://www.w3.org/2000/svg">
<path d="M88.6991 19.3375H102.146C106.602 19.3375 110.203 15 110.203 9.66876C110.203 4.33754 106.589 0 102.146 0H88.6991C69.4292 0 53.761 18.8012 53.761 41.9242V58.0598C53.761 66.3879 55.851 74.1166 59.3606 80.6465H34.9381C31.9674 80.6465 29.562 77.7443 29.562 74.1954V49.6844C37.4224 45.8516 43.0088 36.6087 43.0088 25.8043C43.0088 11.5772 33.3607 0 21.5044 0C9.64806 0 0 11.5772 0 25.8043C0 36.6087 5.57327 45.8516 13.4468 49.6844V74.1954C13.4468 88.4225 23.0949 99.9998 34.9512 99.9998H102.159C106.615 99.9998 110.217 95.6623 110.217 90.3311C110.217 84.9998 106.602 80.6623 102.159 80.6623H88.7122C78.3412 80.6623 69.8893 70.5204 69.8893 58.0756V41.94C69.8893 29.4952 78.3412 19.3533 88.7122 19.3533L88.6991 19.3375ZM21.4913 32.2555C18.5206 32.2555 16.1152 29.3532 16.1152 25.8043C16.1152 22.2554 18.5337 19.3533 21.4913 19.3533C24.4488 19.3533 26.8674 22.2554 26.8674 25.8043C26.8674 29.3532 24.4488 32.2555 21.4913 32.2555Z" fill="url(#paint0_linear_417_1259)"/>
<path d="M204.108 32.3503C200.822 31.7824 198.048 33.7068 196.405 36.6247C195.498 36.0254 194.578 35.4733 193.619 34.9843C192.002 34.1641 190.766 32.5238 190.096 30.5837C188.9 27.161 186.087 24.7635 182.814 24.7635C179.541 24.7635 176.715 27.161 175.532 30.5837C174.874 32.4765 173.652 34.038 172.075 34.8266C161.835 39.9055 154.606 52.0032 154.606 66.1199C154.606 71.3407 155.67 76.2303 157.432 80.6467H135.77C132.799 80.6467 130.393 77.7602 130.393 74.1955V10.0002C130.393 5.07905 127.449 0.694144 123.387 0.0790031C118.471 -0.66232 114.278 3.91183 114.278 9.66891V74.1799C114.278 88.4227 123.9 99.9842 135.783 99.9842H182.84C187.796 99.9842 192.383 98.3122 196.431 95.6151C198.075 98.5331 200.848 100.457 204.134 99.8896C208.169 99.1956 211.061 94.7791 211.061 89.8895V42.366C211.061 37.4764 208.183 33.0601 204.134 32.3661L204.108 32.3503ZM182.814 80.6309C176.149 80.6309 170.708 74.1167 170.708 66.1041C170.708 58.0915 176.136 51.5774 182.814 51.5774C189.491 51.5774 194.92 58.0915 194.92 66.1041C194.92 74.1167 189.491 80.6309 182.814 80.6309Z" fill="url(#paint1_linear_417_1259)"/>
<path d="M243.278 32.2555C238.928 32.2555 234.853 33.533 231.172 35.6466V9.66876C231.172 4.32177 227.558 0 223.115 0C218.672 0 215.057 4.33754 215.057 9.66876V90.3153C215.057 95.6623 218.672 99.9841 223.115 99.9841C225.901 99.9841 228.228 98.1859 229.674 95.6149C233.722 98.3121 238.31 99.9841 243.265 99.9841C258.828 99.9841 271.486 84.7948 271.486 66.1197C271.486 47.4447 258.828 32.2555 243.265 32.2555H243.278ZM243.278 80.6465C236.614 80.6465 231.172 74.1323 231.172 66.1197C231.172 58.1071 236.601 51.593 243.278 51.593C249.956 51.593 255.384 58.1071 255.384 66.1197C255.384 74.1323 249.956 80.6465 243.278 80.6465Z" fill="url(#paint2_linear_417_1259)"/>
<defs>
<linearGradient id="paint0_linear_417_1259" x1="55.1083" y1="0" x2="55.1083" y2="99.9998" gradientUnits="userSpaceOnUse">
<stop stop-color="#45C5FF"/>
<stop offset="1" stop-color="#01A1F8"/>
</linearGradient>
<linearGradient id="paint1_linear_417_1259" x1="162.67" y1="0" x2="162.67" y2="99.9889" gradientUnits="userSpaceOnUse">
<stop stop-color="#45C5FF"/>
<stop offset="1" stop-color="#01A1F8"/>
</linearGradient>
<linearGradient id="paint2_linear_417_1259" x1="243.272" y1="0" x2="243.272" y2="99.9841" gradientUnits="userSpaceOnUse">
<stop stop-color="#45C5FF"/>
<stop offset="1" stop-color="#01A1F8"/>
</linearGradient>
</defs>
</svg>
