<svg viewBox="0 0 390 100" fill="none" xmlns="http://www.w3.org/2000/svg">
<path d="M0.0939941 0.524414H5.87816V47.0206H0.0939941V0.524414Z" fill="#444444"/>
<path d="M15.2365 13.3577V47.0373H10.0273V0.541016H17.2886L23.2307 28.3818V0.541016H28.3834V47.0373H22.4413L15.2365 13.3577Z" fill="#444444"/>
<path d="M30.864 0.524414H48.7464V7.17489H42.7029V47.0349H36.9188V7.17489H30.8753V0.524414H30.864Z" fill="#444444"/>
<path d="M57.0564 20.1364H64.9941V26.7726H57.0564V40.3868H67.0462V47.0373H51.261V0.541016H67.0462V7.19153H57.0564V20.1506V20.1364Z" fill="#444444"/>
<path d="M82.7181 47.0373C82.4024 45.841 82.1882 45.1147 82.1882 41.3267V34.0212C82.1882 29.7062 81.0269 28.1112 78.3998 28.1112H76.404V47.0373H70.6199V0.541016H79.3468C85.3452 0.541016 87.9161 4.05851 87.9161 11.2359V14.8815C87.9161 19.6664 86.7095 22.7852 84.1275 24.3089C87.0252 25.8327 87.9611 29.3644 87.9611 34.2063V41.3836C87.9611 43.6479 88.0175 45.2999 88.5926 47.023H82.707L82.7181 47.0373ZM76.404 7.17728V21.4608H78.6704C80.8239 21.4608 82.1432 20.2645 82.1432 16.5477V11.9622C82.1432 8.64406 81.2523 7.17728 79.2003 7.17728H76.4153H76.404Z" fill="#444444"/>
<path d="M110.489 47.0373H104.649L103.645 38.6067H96.5416L95.5381 47.0373H90.2275L96.1131 0.541016H104.581L110.467 47.0373H110.489ZM97.2858 32.2838H102.867L100.082 8.77224L97.2971 32.2838H97.2858Z" fill="#444444"/>
<path d="M129.95 29.6921V35.8725C129.95 43.3062 127.007 47.5643 121.325 47.5643C115.642 47.5643 112.699 43.3062 112.699 35.8725V11.6917C112.699 4.25799 115.642 0 121.325 0C127.007 0 129.95 4.25799 129.95 11.6917V16.206H124.481V11.2217C124.481 7.90361 123.32 6.63622 121.482 6.63622C119.644 6.63622 118.483 7.90361 118.483 11.2217V36.3283C118.483 39.6464 119.644 40.8426 121.482 40.8426C123.32 40.8426 124.481 39.6464 124.481 36.3283V29.6778H129.95V29.6921Z" fill="#444444"/>
<path d="M131.787 0.524414H149.67V7.17489H143.626V47.0349H137.842V7.17489H131.799V0.524414H131.787Z" fill="#444444"/>
<path d="M152.196 0.524414H157.98V47.0206H152.196V0.524414Z" fill="#444444"/>
<path d="M170.924 38.4619L175.344 0.524414H180.655L174.972 47.0206H166.346L160.664 0.524414H166.504L170.924 38.4619V38.4619Z" fill="#444444"/>
<path d="M189.122 20.1364H197.06V26.7726H189.122V40.3868H199.112V47.0373H183.327V0.541016H199.112V7.19153H189.122V20.1506V20.1364Z" fill="#444444"/>
<path d="M227.616 29.6921V35.8725C227.616 43.3062 224.673 47.5643 218.991 47.5643C213.308 47.5643 210.365 43.3062 210.365 35.8725V11.6917C210.365 4.25799 213.308 0 218.991 0C224.673 0 227.616 4.25799 227.616 11.6917V16.206H222.147V11.2217C222.147 7.90361 220.986 6.63622 219.148 6.63622C217.31 6.63622 216.149 7.90361 216.149 11.2217V36.3283C216.149 39.6464 217.31 40.8426 219.148 40.8426C220.986 40.8426 222.147 39.6464 222.147 36.3283V29.6778H227.616V29.6921Z" fill="#444444"/>
<path d="M230.671 11.6917C230.671 4.25799 233.771 0 239.454 0C245.137 0 248.238 4.25799 248.238 11.6917V35.8725C248.238 43.3062 245.137 47.5643 239.454 47.5643C233.771 47.5643 230.671 43.3062 230.671 35.8725V11.6917ZM236.455 36.3425C236.455 39.6606 237.616 40.928 239.454 40.928C241.292 40.928 242.453 39.6606 242.453 36.3425V11.236C242.453 7.91786 241.292 6.65047 239.454 6.65047C237.616 6.65047 236.455 7.91786 236.455 11.236V36.3425Z" fill="#444444"/>
<path d="M264.226 33.5512L268.172 0.541016H276.223V47.0373H270.754V13.6853L266.752 47.0373H261.283L256.965 14.1552V47.0373H251.914V0.541016H259.964L264.226 33.5512V33.5512Z" fill="#444444"/>
<path d="M297.567 12.0167V18.0548C297.567 25.4885 294.725 29.5471 288.941 29.5471H286.201V47.0206H280.417V0.524414H288.941C294.725 0.524414 297.567 4.58301 297.567 12.0167V12.0167ZM286.201 7.16063V22.911H288.941C290.779 22.911 291.783 21.8429 291.783 18.5248V11.5468C291.783 8.22872 290.779 7.16063 288.941 7.16063H286.201V7.16063Z" fill="#444444"/>
<path d="M306.034 0.524414V36.397C306.034 39.7151 307.196 40.9114 309.034 40.9114C310.872 40.9114 312.033 39.7151 312.033 36.397V0.524414H317.501V35.9271C317.501 43.3608 314.558 47.6187 308.876 47.6187C303.193 47.6187 300.25 43.3608 300.25 35.9271V0.524414H306.034Z" fill="#444444"/>
<path d="M319.768 0.524414H337.65V7.17489H331.607V47.0349H325.822V7.17489H319.779V0.524414H319.768Z" fill="#444444"/>
<path d="M340.164 0.524414H345.948V47.0206H340.164V0.524414Z" fill="#444444"/>
<path d="M355.318 13.3577V47.0373H350.109V0.541016H357.37L363.312 28.3818V0.541016H368.465V47.0373H362.523L355.318 13.3577Z" fill="#444444"/>
<path d="M381.297 21.1191H389.392V35.8725C389.392 43.3062 386.449 47.5643 380.767 47.5643C375.084 47.5643 372.141 43.3062 372.141 35.8725V11.6917C372.141 4.25799 375.084 0 380.767 0C386.449 0 389.392 4.25799 389.392 11.6917V16.206H383.924V11.2217C383.924 7.90361 382.762 6.63622 380.925 6.63622C379.087 6.63622 377.925 7.90361 377.925 11.2217V36.3283C377.925 39.6464 379.087 40.8426 380.925 40.8426C382.762 40.8426 383.924 39.6464 383.924 36.3283V27.7553H381.297V21.1048V21.1191Z" fill="#444444"/>
<path d="M0.0939941 53.1641H4.3106V91.9285H17.0479V99.2282H0.0939941V53.1641V53.1641Z" fill="#999999"/>
<path d="M44.6968 99.229H40.2031L37.7518 88.1083H26.2985L23.8036 99.229H19.4412L30.092 52.8486H34.0314L44.6822 99.229H44.6968ZM32.0034 62.52L27.8452 80.9404H36.1908L32.0034 62.52V62.52Z" fill="#999999"/>
<path d="M65.5021 56.3323C66.9319 58.4405 67.6468 61.3128 67.6468 64.9758C67.6468 66.3725 67.5447 67.6374 67.3551 68.7178C67.1654 69.8246 66.9173 70.7734 66.5964 71.5903C66.29 72.4073 65.9252 73.1188 65.5021 73.7249C65.079 74.331 64.6558 74.858 64.2181 75.306C64.9331 75.7803 65.575 76.3338 66.1586 76.9926C66.7422 77.625 67.2529 78.3892 67.676 79.2588C68.0991 80.1285 68.4202 81.1827 68.6536 82.3686C68.8871 83.5808 69.0038 84.951 69.0038 86.5322C69.0038 88.5877 68.7848 90.406 68.3617 91.9872C67.9386 93.5683 67.3258 94.886 66.5525 95.9664C65.7647 97.0469 64.831 97.8374 63.7221 98.3908C62.6133 98.9442 61.4022 99.2077 60.0599 99.2077H48.8691V53.1436H59.7098C62.1464 53.1436 64.0868 54.1977 65.5167 56.3059L65.5021 56.3323ZM62.1755 71.0896C63.0071 70.0619 63.4156 68.4544 63.4156 66.2934C63.4156 64.3961 63.0509 62.9204 62.3359 61.8926C61.6064 60.8649 60.556 60.3377 59.1846 60.3377H53.0857V72.6445H58.878C60.2495 72.6445 61.3584 72.1174 62.1901 71.0896H62.1755ZM63.5178 90.4325C64.3495 89.352 64.758 87.7709 64.758 85.6627C64.758 83.6862 64.3495 82.1578 63.5324 81.051C62.7154 79.9442 61.4751 79.417 59.7972 79.417H53.0711V92.0399H60.1038C61.5482 92.0399 62.6862 91.5129 63.5178 90.4325Z" fill="#999999"/>
<path d="M97.1627 85.3477C96.5353 88.2465 95.66 90.7764 94.5366 92.9373C93.4131 95.0982 92.0708 96.8375 90.5242 98.1024C88.9777 99.3674 87.2706 99.9999 85.403 99.9999C83.5355 99.9999 81.8284 99.3674 80.2818 98.1288C78.7353 96.8903 77.4076 95.1774 76.2987 93.0428C75.1899 90.8819 74.329 88.3784 73.7016 85.4796C73.0742 82.5809 72.7678 79.524 72.7678 76.2562C72.7678 72.9885 73.0742 69.9316 73.7016 67.0329C74.329 64.1341 75.2045 61.6042 76.3279 59.4433C77.4514 57.2824 78.7937 55.5431 80.3403 54.2782C81.8868 53.0132 83.5939 52.3809 85.4615 52.3809C87.329 52.3809 89.0361 53.0132 90.5827 54.2518C92.1292 55.4904 93.4569 57.2033 94.5658 59.3378C95.6746 61.4987 96.5353 64.0022 97.1627 66.901C97.7901 69.7997 98.0965 72.8566 98.0965 76.1244C98.0965 79.3921 97.7901 82.449 97.1627 85.3477ZM93.0337 69.9316C92.6252 67.9288 92.0707 66.1895 91.3412 64.6874C90.6117 63.1854 89.751 62.0259 88.7297 61.1299C87.7084 60.2603 86.614 59.8123 85.403 59.8123C84.1921 59.8123 83.0978 60.2339 82.1056 61.1035C81.1135 61.9732 80.238 63.1327 79.5231 64.5821C78.8082 66.0578 78.2537 67.797 77.8452 69.7735C77.4367 71.7763 77.2325 73.8844 77.2325 76.1244C77.2325 78.3643 77.4367 80.4726 77.8452 82.4754C78.2537 84.4782 78.8082 86.2174 79.5377 87.6932C80.2672 89.1953 81.1281 90.3812 82.1494 91.2508C83.1708 92.1205 84.2651 92.5685 85.4761 92.5685C86.6871 92.5685 87.7812 92.1467 88.7733 91.2771C89.78 90.4074 90.6409 89.2481 91.3558 87.7987C92.0707 86.3229 92.6252 84.6099 93.0337 82.6071C93.4423 80.6043 93.632 78.4962 93.632 76.2562C93.632 74.0163 93.4277 71.908 93.0337 69.9052V69.9316Z" fill="#999999"/>
<path d="M118.786 99.2282L112.818 83.1796H107.478V99.2282H103.261V53.1641H114.058C115.444 53.1641 116.699 53.5067 117.808 54.1918C118.931 54.877 119.88 55.8256 120.653 57.0906C121.426 58.3291 122.025 59.8839 122.433 61.7023C122.842 63.5206 123.06 65.5497 123.06 67.7897C123.06 69.7134 122.915 71.4527 122.623 72.9548C122.331 74.4569 121.937 75.8008 121.426 76.9603C120.916 78.1198 120.317 79.1212 119.617 79.9118C118.917 80.7287 118.129 81.3612 117.283 81.7829L123.819 99.2282H118.8H118.786ZM117.399 62.4138C116.524 61.1226 115.284 60.4638 113.679 60.4638H107.463V75.9853H113.708C115.24 75.9853 116.451 75.2738 117.356 73.8771C118.26 72.4804 118.713 70.5831 118.713 68.185C118.713 65.6288 118.275 63.7051 117.399 62.4138Z" fill="#999999"/>
<path d="M151.453 99.229H146.959L144.508 88.1083H133.055L130.56 99.229H126.197L136.848 52.8486H140.788L151.439 99.229H151.453ZM138.759 62.52L134.601 80.9404H142.947L138.759 62.52V62.52Z" fill="#999999"/>
<path d="M162.731 99.2282H158.441V60.6745H150.752V53.1641H170.405V60.6745H162.716V99.2282H162.731Z" fill="#999999"/>
<path d="M196.931 85.3477C196.303 88.2465 195.428 90.7764 194.305 92.9373C193.181 95.0982 191.839 96.8375 190.292 98.1024C188.746 99.3674 187.039 99.9999 185.171 99.9999C183.304 99.9999 181.596 99.3674 180.05 98.1288C178.503 96.8903 177.176 95.1774 176.067 93.0428C174.958 90.8819 174.097 88.3784 173.47 85.4796C172.842 82.5809 172.536 79.524 172.536 76.2562C172.536 72.9885 172.842 69.9316 173.47 67.0329C174.097 64.1341 174.973 61.6042 176.096 59.4433C177.219 57.2824 178.562 55.5431 180.108 54.2782C181.655 53.0132 183.362 52.3809 185.23 52.3809C187.097 52.3809 188.804 53.0132 190.351 54.2518C191.897 55.4904 193.225 57.2033 194.334 59.3378C195.443 61.4987 196.303 64.0022 196.931 66.901C197.558 69.7997 197.865 72.8566 197.865 76.1244C197.865 79.3921 197.558 82.449 196.931 85.3477ZM192.802 69.9316C192.393 67.9288 191.839 66.1895 191.109 64.6874C190.38 63.1854 189.519 62.0259 188.498 61.1299C187.476 60.2603 186.382 59.8123 185.171 59.8123C183.96 59.8123 182.866 60.2339 181.874 61.1035C180.882 61.9732 180.006 63.1327 179.291 64.5821C178.576 66.0578 178.022 67.797 177.613 69.7735C177.205 71.7763 177.001 73.8844 177.001 76.1244C177.001 78.3643 177.205 80.4726 177.613 82.4754C178.022 84.4782 178.576 86.2174 179.306 87.6932C180.035 89.1953 180.896 90.3812 181.918 91.2508C182.939 92.1205 184.033 92.5685 185.244 92.5685C186.455 92.5685 187.549 92.1467 188.541 91.2771C189.548 90.4074 190.409 89.2481 191.124 87.7987C191.839 86.3229 192.393 84.6099 192.802 82.6071C193.21 80.6043 193.4 78.4962 193.4 76.2562C193.4 74.0163 193.196 71.908 192.802 69.9052V69.9316Z" fill="#999999"/>
<path d="M218.554 99.2282L212.587 83.1796H207.247V99.2282H203.03V53.1641H213.827C215.213 53.1641 216.468 53.5067 217.576 54.1918C218.7 54.877 219.648 55.8256 220.422 57.0906C221.195 58.3291 221.793 59.8839 222.202 61.7023C222.61 63.5206 222.829 65.5497 222.829 67.7897C222.829 69.7134 222.683 71.4527 222.391 72.9548C222.1 74.4569 221.706 75.8008 221.195 76.9603C220.684 78.1198 220.086 79.1212 219.386 79.9118C218.685 80.7287 217.897 81.3612 217.051 81.7829L223.588 99.2282H218.569H218.554ZM217.168 62.4138C216.293 61.1226 215.052 60.4638 213.448 60.4638H207.232V75.9853H213.477C215.009 75.9853 216.22 75.2738 217.124 73.8771C218.029 72.4804 218.481 70.5831 218.481 68.185C218.481 65.6288 218.043 63.7051 217.168 62.4138Z" fill="#999999"/>
<path d="M238.586 99.2282H234.297V81.0713L224.681 53.1641H229.701L236.485 73.5609L243.342 53.1641H248.216L238.601 80.8606V99.2282H238.586Z" fill="#999999"/>
</svg>
