<svg width="15" height="15" viewBox="0 0 15 15" fill="none" xmlns="http://www.w3.org/2000/svg">
<path d="M7.49805 0.5C6.57879 0.5 5.66854 0.685556 4.81926 1.04607C3.96998 1.40659 3.19831 1.93501 2.5483 2.60115C1.23554 3.9465 0.498047 5.77118 0.498047 7.67379C0.498047 10.8446 2.50705 13.5348 5.28605 14.4889C5.63605 14.5463 5.74805 14.3239 5.74805 14.1302C5.74805 13.9652 5.74805 13.5133 5.74805 12.9178C3.80905 13.3483 3.39605 11.9565 3.39605 11.9565C3.07405 11.1244 2.61905 10.902 2.61905 10.902C1.98205 10.4572 2.66805 10.4716 2.66805 10.4716C3.36805 10.5218 3.73905 11.2105 3.73905 11.2105C4.34805 12.3009 5.37705 11.9781 5.77605 11.8059C5.83905 11.3396 6.02105 11.0239 6.21705 10.8446C4.66305 10.6653 3.03205 10.0483 3.03205 7.3151C3.03205 6.51881 3.29805 5.88034 3.75305 5.371C3.68305 5.19166 3.43805 4.44558 3.82305 3.47712C3.82305 3.47712 4.41105 3.28343 5.74805 4.20885C6.30105 4.05103 6.90305 3.97211 7.49805 3.97211C8.09305 3.97211 8.69505 4.05103 9.24805 4.20885C10.585 3.28343 11.173 3.47712 11.173 3.47712C11.558 4.44558 11.313 5.19166 11.243 5.371C11.698 5.88034 11.964 6.51881 11.964 7.3151C11.964 10.0555 10.326 10.6581 8.76505 10.8374C9.01705 11.0598 9.24805 11.4974 9.24805 12.1646C9.24805 13.1259 9.24805 13.9006 9.24805 14.1302C9.24805 14.3239 9.36005 14.5535 9.71705 14.4889C12.496 13.5276 14.498 10.8446 14.498 7.67379C14.498 6.73171 14.317 5.79886 13.9652 4.9285C13.6134 4.05813 13.0978 3.2673 12.4478 2.60115C11.7978 1.93501 11.0261 1.40659 10.1768 1.04607C9.32755 0.685556 8.4173 0.5 7.49805 0.5Z" fill="white"/>
</svg>
