<svg width="11" height="15" viewBox="0 0 11 15" fill="none" xmlns="http://www.w3.org/2000/svg">
<path d="M10.1125 3.17916L7.81879 0.885472C7.57274 0.639426 7.23921 0.5 6.89201 0.5H1.31224C0.587776 0.502734 0 1.09051 0 1.81498V13.1878C0 13.9122 0.587776 14.5 1.31224 14.5H9.18571C9.91018 14.5 10.498 13.9122 10.498 13.1878V4.10867C10.498 3.76147 10.3585 3.42521 10.1125 3.17916ZM9.07909 4.00205H6.99863V1.9216L9.07909 4.00205ZM1.31224 13.1878V1.81498H5.68639V4.65817C5.68639 5.02177 5.97891 5.31429 6.34251 5.31429H9.18571V13.1878H1.31224ZM8.15232 9.25923C7.81879 8.93117 6.86741 9.02138 6.39172 9.08153C5.9215 8.79447 5.60711 8.39807 5.38567 7.81576C5.49229 7.37561 5.66179 6.70582 5.53329 6.28481C5.41847 5.56854 4.4999 5.63962 4.36868 6.12351C4.24839 6.56366 4.35774 7.17604 4.56005 7.95792C4.28666 8.61131 3.87932 9.48887 3.59227 9.9919C3.0455 10.2735 2.30736 10.7082 2.19801 11.2549C2.10779 11.6869 2.90881 12.764 4.27846 10.402C4.89084 10.1997 5.5579 9.95089 6.14841 9.85247C6.6651 10.1313 7.26928 10.3172 7.67389 10.3172C8.37102 10.3172 8.43937 9.54628 8.15232 9.25923ZM2.73658 11.3862C2.876 11.0116 3.40637 10.5797 3.56766 10.4293C3.04823 11.2577 2.73658 11.4053 2.73658 11.3862ZM4.96739 6.17545C5.16969 6.17545 5.15056 7.05302 5.0166 7.29086C4.89631 6.91086 4.89904 6.17545 4.96739 6.17545ZM4.30033 9.90988C4.56552 9.44786 4.79242 8.89836 4.97559 8.41447C5.2025 8.82728 5.49229 9.15808 5.79848 9.38498C5.22984 9.50254 4.73501 9.74312 4.30033 9.90988ZM7.89807 9.77319C7.89807 9.77319 7.76138 9.93722 6.87835 9.55995C7.83792 9.48887 7.99649 9.70758 7.89807 9.77319Z" fill="white"/>
</svg>
