<svg width="11" height="15" viewBox="0 0 11 15" fill="none" xmlns="http://www.w3.org/2000/svg">
<mask id="mask0_334_548" style="mask-type:alpha" maskUnits="userSpaceOnUse" x="0" y="0" width="11" height="15">
<path d="M6.86168 0.5H1.45259C0.927592 0.5 0.498047 0.929545 0.498047 1.45455V13.5455C0.498047 14.0705 0.927592 14.5 1.45259 14.5H9.72532C10.2503 14.5 10.6799 14.0705 10.6799 13.5455V4.31818L6.86168 0.5Z" fill="white"/>
</mask>
<g mask="url(#mask0_334_548)">
<path d="M6.86168 0.5H1.45259C0.927592 0.5 0.498047 0.929545 0.498047 1.45455V13.5455C0.498047 14.0705 0.927592 14.5 1.45259 14.5H9.72532C10.2503 14.5 10.6799 14.0705 10.6799 13.5455V4.31818L8.45259 2.72727L6.86168 0.5Z" fill="white"/>
</g>
<mask id="mask1_334_548" style="mask-type:alpha" maskUnits="userSpaceOnUse" x="0" y="0" width="11" height="15">
<path d="M6.86168 0.5H1.45259C0.927592 0.5 0.498047 0.929545 0.498047 1.45455V13.5455C0.498047 14.0705 0.927592 14.5 1.45259 14.5H9.72532C10.2503 14.5 10.6799 14.0705 10.6799 13.5455V4.31818L6.86168 0.5Z" fill="white"/>
</mask>
<g mask="url(#mask1_334_548)">
<path d="M7.65709 6.86377H3.52073C3.25823 6.86377 3.04346 7.07854 3.04346 7.34104V11.4774C3.04346 11.7399 3.25823 11.9547 3.52073 11.9547H7.65709C7.91959 11.9547 8.13437 11.7399 8.13437 11.4774V7.34104C8.13437 7.07854 7.91959 6.86377 7.65709 6.86377ZM7.498 10.5229H3.67982V8.29559H7.498V10.5229Z" fill="#F4B400"/>
</g>
<mask id="mask2_334_548" style="mask-type:alpha" maskUnits="userSpaceOnUse" x="0" y="0" width="11" height="15">
<path d="M6.86168 0.5H1.45259C0.927592 0.5 0.498047 0.929545 0.498047 1.45455V13.5455C0.498047 14.0705 0.927592 14.5 1.45259 14.5H9.72532C10.2503 14.5 10.6799 14.0705 10.6799 13.5455V4.31818L6.86168 0.5Z" fill="white"/>
</mask>
<g mask="url(#mask2_334_548)">
<path d="M7.14087 4.03906L10.6798 7.57724V4.31827L7.14087 4.03906Z" fill="url(#paint0_linear_334_548)"/>
</g>
<mask id="mask3_334_548" style="mask-type:alpha" maskUnits="userSpaceOnUse" x="0" y="0" width="11" height="15">
<path d="M6.86168 0.5H1.45259C0.927592 0.5 0.498047 0.929545 0.498047 1.45455V13.5455C0.498047 14.0705 0.927592 14.5 1.45259 14.5H9.72532C10.2503 14.5 10.6799 14.0705 10.6799 13.5455V4.31818L6.86168 0.5Z" fill="white"/>
</mask>
<g mask="url(#mask3_334_548)">
<path d="M6.86157 0.5V3.36364C6.86157 3.89102 7.28873 4.31818 7.81612 4.31818H10.6798L6.86157 0.5Z" fill="#FADA80"/>
</g>
<mask id="mask4_334_548" style="mask-type:alpha" maskUnits="userSpaceOnUse" x="0" y="0" width="11" height="15">
<path d="M6.86168 0.5H1.45259C0.927592 0.5 0.498047 0.929545 0.498047 1.45455V13.5455C0.498047 14.0705 0.927592 14.5 1.45259 14.5H9.72532C10.2503 14.5 10.6799 14.0705 10.6799 13.5455V4.31818L6.86168 0.5Z" fill="white"/>
</mask>
<g mask="url(#mask4_334_548)">
<path d="M6.86157 0.5V0.579545L10.6002 4.31818H10.6798L6.86157 0.5Z" fill="white" fill-opacity="0.1"/>
</g>
<mask id="mask5_334_548" style="mask-type:alpha" maskUnits="userSpaceOnUse" x="0" y="0" width="11" height="15">
<path d="M6.86168 0.5H1.45259C0.927592 0.5 0.498047 0.929545 0.498047 1.45455V13.5455C0.498047 14.0705 0.927592 14.5 1.45259 14.5H9.72532C10.2503 14.5 10.6799 14.0705 10.6799 13.5455V4.31818L6.86168 0.5Z" fill="white"/>
</mask>
<g mask="url(#mask5_334_548)">
<path d="M1.45259 0.5C0.927592 0.5 0.498047 0.929545 0.498047 1.45455V1.53409C0.498047 1.00909 0.927592 0.579545 1.45259 0.579545H6.86168V0.5H1.45259Z" fill="white" fill-opacity="0.2"/>
</g>
<mask id="mask6_334_548" style="mask-type:alpha" maskUnits="userSpaceOnUse" x="0" y="0" width="11" height="15">
<path d="M6.86168 0.5H1.45259C0.927592 0.5 0.498047 0.929545 0.498047 1.45455V13.5455C0.498047 14.0705 0.927592 14.5 1.45259 14.5H9.72532C10.2503 14.5 10.6799 14.0705 10.6799 13.5455V4.31818L6.86168 0.5Z" fill="white"/>
</mask>
<g mask="url(#mask6_334_548)">
<path d="M9.72532 14.4204H1.45259C0.927592 14.4204 0.498047 13.9908 0.498047 13.4658V13.5454C0.498047 14.0704 0.927592 14.4999 1.45259 14.4999H9.72532C10.2503 14.4999 10.6799 14.0704 10.6799 13.5454V13.4658C10.6799 13.9908 10.2503 14.4204 9.72532 14.4204Z" fill="#F4B400"/>
</g>
<mask id="mask7_334_548" style="mask-type:alpha" maskUnits="userSpaceOnUse" x="0" y="0" width="11" height="15">
<path d="M6.86168 0.5H1.45259C0.927592 0.5 0.498047 0.929545 0.498047 1.45455V13.5455C0.498047 14.0705 0.927592 14.5 1.45259 14.5H9.72532C10.2503 14.5 10.6799 14.0705 10.6799 13.5455V4.31818L6.86168 0.5Z" fill="white"/>
</mask>
<g mask="url(#mask7_334_548)">
<path d="M7.81612 4.31831C7.28873 4.31831 6.86157 3.89116 6.86157 3.36377V3.44332C6.86157 3.9707 7.28873 4.39786 7.81612 4.39786H10.6798V4.31831H7.81612Z" fill="#F4B400"/>
</g>
<path d="M6.86168 0.5H1.45259C0.927592 0.5 0.498047 0.929545 0.498047 1.45455V13.5455C0.498047 14.0705 0.927592 14.5 1.45259 14.5H9.72532C10.2503 14.5 10.6799 14.0705 10.6799 13.5455V4.31818L6.86168 0.5Z" fill="url(#paint1_radial_334_548)"/>
<defs>
<linearGradient id="paint0_linear_334_548" x1="8.91055" y1="4.34285" x2="8.91055" y2="7.57774" gradientUnits="userSpaceOnUse">
<stop stop-color="#BF360C" stop-opacity="0.2"/>
<stop offset="1" stop-color="#BF360C" stop-opacity="0.02"/>
</linearGradient>
<radialGradient id="paint1_radial_334_548" cx="0" cy="0" r="1" gradientUnits="userSpaceOnUse" gradientTransform="translate(0.820612 0.778279) scale(16.418 16.418)">
<stop stop-color="white" stop-opacity="0.1"/>
<stop offset="1" stop-color="white" stop-opacity="0"/>
</radialGradient>
</defs>
</svg>
