<svg width="11" height="14" viewBox="0 0 11 14" fill="none" xmlns="http://www.w3.org/2000/svg">
<mask id="mask0_350_1381" style="mask-type:alpha" maskUnits="userSpaceOnUse" x="0" y="0" width="11" height="14">
<path d="M6.32692 0H0.949038C0.427067 0 0 0.429545 0 0.954545V13.0455C0 13.5705 0.427067 14 0.949038 14H9.17404C9.69601 14 10.1231 13.5705 10.1231 13.0455V3.81818L6.32692 0Z" fill="white"/>
</mask>
<g mask="url(#mask0_350_1381)">
<path d="M6.32692 0H0.949038C0.427067 0 0 0.429545 0 0.954545V13.0455C0 13.5705 0.427067 14 0.949038 14H9.17404C9.69601 14 10.1231 13.5705 10.1231 13.0455V3.81818L7.90865 2.22727L6.32692 0Z" fill="white"/>
</g>
<mask id="mask1_350_1381" style="mask-type:alpha" maskUnits="userSpaceOnUse" x="0" y="0" width="11" height="14">
<path d="M6.32692 0H0.949038C0.427067 0 0 0.429545 0 0.954545V13.0455C0 13.5705 0.427067 14 0.949038 14H9.17404C9.69601 14 10.1231 13.5705 10.1231 13.0455V3.81818L6.32692 0Z" fill="white"/>
</mask>
<g mask="url(#mask1_350_1381)">
<path d="M6.60449 3.53906L10.1231 7.07724V3.81827L6.60449 3.53906Z" fill="url(#paint0_linear_350_1381)"/>
</g>
<mask id="mask2_350_1381" style="mask-type:alpha" maskUnits="userSpaceOnUse" x="0" y="0" width="11" height="14">
<path d="M6.32692 0H0.949038C0.427067 0 0 0.429545 0 0.954545V13.0455C0 13.5705 0.427067 14 0.949038 14H9.17404C9.69601 14 10.1231 13.5705 10.1231 13.0455V3.81818L6.32692 0Z" fill="white"/>
</mask>
<g mask="url(#mask2_350_1381)">
<path d="M2.53076 10.1818H7.5923V9.54545H2.53076V10.1818ZM2.53076 11.4545H6.32692V10.8182H2.53076V11.4545ZM2.53076 7V7.63636H7.5923V7H2.53076ZM2.53076 8.90909H7.5923V8.27273H2.53076V8.90909Z" fill="#4285F4"/>
</g>
<mask id="mask3_350_1381" style="mask-type:alpha" maskUnits="userSpaceOnUse" x="0" y="0" width="11" height="14">
<path d="M6.32692 0H0.949038C0.427067 0 0 0.429545 0 0.954545V13.0455C0 13.5705 0.427067 14 0.949038 14H9.17404C9.69601 14 10.1231 13.5705 10.1231 13.0455V3.81818L6.32692 0Z" fill="white"/>
</mask>
<g mask="url(#mask3_350_1381)">
<path d="M6.32715 0V2.86364C6.32715 3.39102 6.75184 3.81818 7.27619 3.81818H10.1233L6.32715 0Z" fill="#A1C2FA"/>
</g>
<mask id="mask4_350_1381" style="mask-type:alpha" maskUnits="userSpaceOnUse" x="0" y="0" width="11" height="14">
<path d="M6.32692 0H0.949038C0.427067 0 0 0.429545 0 0.954545V13.0455C0 13.5705 0.427067 14 0.949038 14H9.17404C9.69601 14 10.1231 13.5705 10.1231 13.0455V3.81818L6.32692 0Z" fill="white"/>
</mask>
<g mask="url(#mask4_350_1381)">
<path d="M0.949038 0C0.427067 0 0 0.429545 0 0.954545V1.03409C0 0.509091 0.427067 0.0795455 0.949038 0.0795455H6.32692V0H0.949038Z" fill="white" fill-opacity="0.2"/>
</g>
<mask id="mask5_350_1381" style="mask-type:alpha" maskUnits="userSpaceOnUse" x="0" y="0" width="11" height="14">
<path d="M6.32692 0H0.949038C0.427067 0 0 0.429545 0 0.954545V13.0455C0 13.5705 0.427067 14 0.949038 14H9.17404C9.69601 14 10.1231 13.5705 10.1231 13.0455V3.81818L6.32692 0Z" fill="white"/>
</mask>
<g mask="url(#mask5_350_1381)">
<path d="M9.17404 13.9204H0.949038C0.427067 13.9204 0 13.4908 0 12.9658V13.0454C0 13.5704 0.427067 13.9999 0.949038 13.9999H9.17404C9.69601 13.9999 10.1231 13.5704 10.1231 13.0454V12.9658C10.1231 13.4908 9.69601 13.9204 9.17404 13.9204Z" fill="#1A237E" fill-opacity="0.2"/>
</g>
<mask id="mask6_350_1381" style="mask-type:alpha" maskUnits="userSpaceOnUse" x="0" y="0" width="11" height="14">
<path d="M6.32692 0H0.949038C0.427067 0 0 0.429545 0 0.954545V13.0455C0 13.5705 0.427067 14 0.949038 14H9.17404C9.69601 14 10.1231 13.5705 10.1231 13.0455V3.81818L6.32692 0Z" fill="white"/>
</mask>
<g mask="url(#mask6_350_1381)">
<path d="M7.27619 3.81807C6.75184 3.81807 6.32715 3.39091 6.32715 2.86353V2.94307C6.32715 3.47046 6.75184 3.89762 7.27619 3.89762H10.1233V3.81807H7.27619Z" fill="#1A237E" fill-opacity="0.1"/>
</g>
<path d="M6.32692 0H0.949038C0.427067 0 0 0.429545 0 0.954545V13.0455C0 13.5705 0.427067 14 0.949038 14H9.17404C9.69601 14 10.1231 13.5705 10.1231 13.0455V3.81818L6.32692 0Z" fill="url(#paint1_radial_350_1381)"/>
<defs>
<linearGradient id="paint0_linear_350_1381" x1="8.36396" y1="3.84285" x2="8.36396" y2="7.07774" gradientUnits="userSpaceOnUse">
<stop stop-color="#1A237E" stop-opacity="0.2"/>
<stop offset="1" stop-color="#1A237E" stop-opacity="0.02"/>
</linearGradient>
<radialGradient id="paint1_radial_350_1381" cx="0" cy="0" r="1" gradientUnits="userSpaceOnUse" gradientTransform="translate(0.320704 0.27671) scale(16.3233 16.3233)">
<stop stop-color="white" stop-opacity="0.1"/>
<stop offset="1" stop-color="white" stop-opacity="0"/>
</radialGradient>
</defs>
</svg>
