<svg width="19" height="15" viewBox="0 0 19 15" fill="none" xmlns="http://www.w3.org/2000/svg">
<path d="M7.87969 10.5L12.5507 7.5L7.87969 4.5V10.5ZM18.2837 2.67C18.4007 3.14 18.4817 3.77 18.5357 4.57C18.5987 5.37 18.6257 6.06 18.6257 6.66L18.6797 7.5C18.6797 9.69 18.5357 11.3 18.2837 12.33C18.0587 13.23 17.5367 13.81 16.7267 14.06C16.3037 14.19 15.5297 14.28 14.3417 14.34C13.1717 14.41 12.1007 14.44 11.1107 14.44L9.67969 14.5C5.90869 14.5 3.55969 14.34 2.63269 14.06C1.82269 13.81 1.30069 13.23 1.07569 12.33C0.958688 11.86 0.877688 11.23 0.823688 10.43C0.760688 9.63 0.733687 8.94 0.733687 8.34L0.679688 7.5C0.679688 5.31 0.823688 3.7 1.07569 2.67C1.30069 1.77 1.82269 1.19 2.63269 0.94C3.05569 0.81 3.82969 0.72 5.01769 0.66C6.18769 0.59 7.25869 0.56 8.24869 0.56L9.67969 0.5C13.4507 0.5 15.7997 0.66 16.7267 0.94C17.5367 1.19 18.0587 1.77 18.2837 2.67Z" fill="white"/>
</svg>
